<?xml version="1.0" encoding="utf-8"?>
<!-- Generator: Adobe Illustrator 26.0.2, SVG Export Plug-In . SVG Version: 6.00 Build 0)  -->
<svg version="1.1" id="Calque_1" xmlns="http://www.w3.org/2000/svg" xmlns:xlink="http://www.w3.org/1999/xlink" x="0px" y="0px"
	 viewBox="0 0 400 196" style="enable-background:new 0 0 400 196;" xml:space="preserve">
<style type="text/css">
	.st0{fill:#009BA4;}
	.st1{fill:#E5F5F6;}
	.st2{fill:#CCEBED;}
	.st3{fill:#B2E1E4;}
	.st4{fill:#99D7DB;}
	.st5{fill:#80CDD1;}
	.st6{fill:#66C3C8;}
	.st7{fill:#4CB9BF;}
	.st8{fill:#33AFB6;}
	.st9{fill:#19A5AD;}
	.st10{fill-rule:evenodd;clip-rule:evenodd;fill:#004F74;}
	.st11{fill:#CCDCE3;}
	.st12{fill:#99B9C7;}
	.st13{fill:#6696AB;}
	.st14{fill:#337390;}
	.st15{fill:#004F74;}
	.st16{fill:#6F6F6E;}
	.st17{fill:#122941;}
</style>
<g>
	<path class="st0" d="M10.5,116.4C10.5,116.4,10.5,116.4,10.5,116.4C10.6,116.4,10.5,116.4,10.5,116.4c-0.8,0.8-0.8,0.9-0.2,1.3
		C10.5,117.4,10.7,116.9,10.5,116.4C10.6,116.4,10.6,116.4,10.5,116.4C10.6,116.4,10.6,116.4,10.5,116.4
		C10.6,116.4,10.6,116.4,10.5,116.4C10.5,116.4,10.5,116.4,10.5,116.4z"/>
	<path class="st0" d="M7.1,110.3c0.3-0.1,0.2-0.4,0.1-0.6c-0.1-0.5,0.2-0.8,0.6-1c0.4-0.2,0.4,0.4,0.7,0.3c0.5-0.3,0.5,0.2,0.7,0.5
		c0.2,0.4-0.1,0.5-0.4,0.6c-0.2,0.1-0.3,0.1-0.2,0.3c0.5,0.5,0.3,1.2,0.7,1.7c0.1,0.4,0,0.8,0.4,1.1c0.2,0.8,0.4,1.6,0.4,2.4
		c0,0.4,0.1,0.6,0.4,0.9c0.3-1,0-2.1,0.5-3.2c0.4-0.7,0-1.8,0-2.6c0-0.6-0.8-1.1-0.3-1.8c0,0-0.1-0.1-0.1-0.2
		c-0.1-0.5-0.1-0.9,0-1.4c0.4-0.3,0-0.5-0.1-0.7c-0.2-0.6,0.1-1.3-0.1-2c-0.3,0.3-0.2,0.5-0.2,0.8c0,0.2,0,0.5-0.3,0.5
		c-0.3,0.1-0.3-0.2-0.4-0.4c-0.1-0.1-0.2-0.3-0.2-0.4c0-0.3-0.2-0.3-0.4-0.3c-0.8,0-0.5,0.7-0.7,1.1c-0.2,0.7-0.8,1.1-1.4,0.8
		c0-0.3-0.1-0.5-0.1-0.8c-0.2-0.4-0.5-0.1-0.8-0.1c-0.2,0.1,0,0.3,0.1,0.4c0.2,0.6-0.3,1-0.2,1.6c0.1,0.7,0,1.4,0.5,2
		C6.7,110.1,6.7,110.4,7.1,110.3z"/>
	<path class="st0" d="M10.8,102.4c0.3-0.3,0.7-0.7,0.6-1.1c-0.3-1,0-2.1-0.1-3.1c0-0.4-0.7-1.1-1.1-0.9c-0.2,0.1-0.1,0.2-0.1,0.3
		c0.2,0.7,0.3,1.4-0.6,1.9c0.5,0.1,0.7,0.2,0.5,0.6c-0.2,0.2,0,0.4,0,0.6c0,0.3,0.2,0.7-0.4,0.6c-0.4-0.1-0.4,0.3-0.5,0.6
		c-0.1,0.2,0.1,0.4-0.1,0.5c-0.5,0.3-0.2,0.6,0,0.9c0.1,0.2,0.2,0.2,0.2,0.5c0,0.6,0.3,0.5,0.6,0.2c0.2-0.2,0.3-0.3,0.5,0
		c0.3,0.4,0.4,0.2,0.5-0.2c0-0.3,0.1-0.6-0.1-0.8C10.4,102.7,10.6,102.6,10.8,102.4z"/>
	<path class="st0" d="M13.3,94.7c-0.2,0.9,0.1,1.3,0.9,1.5c0.1-0.1,0.2-0.2,0.3-0.2c0.2-0.1,0.3-0.2,0-0.3c-0.4-0.3-0.5-0.7,0-1
		c0.3-0.2,0.4-0.4,0.3-0.8c-0.1-0.3-0.1-0.6-0.1-0.8c0.1-0.5-0.1-1-0.1-1.5c0-0.3-0.2-0.5-0.4-0.5c-0.4,0-0.1,0.3-0.2,0.5
		c-0.2,0.5,0.1,1-0.2,1.4C13.5,93.5,13.4,94.1,13.3,94.7z"/>
	<path class="st0" d="M14.7,104.1c0.2,0.1,0.3-0.1,0.3-0.2c0.3-0.5-0.2-0.8-0.2-1.3c0-0.1-0.3-0.1-0.3,0c-0.1,0.2-0.3,0.2-0.4,0.3
		c-0.5,0.1-0.4,0.3-0.3,0.8c0.1,0.5,0.4,1.1,0.3,1.6c-0.3,0.9,0.3,1.6,0.2,2.4c0,0.2,0.1,0.3,0.3,0.4c0.2,0,0.3-0.1,0.4-0.2
		c0.2-0.2,0.1-0.4,0.1-0.6c-0.1-0.4,0.1-0.9-0.4-1.3c-0.2-0.3,0-0.5,0.2-0.7c0.2-0.3,0.4-0.7-0.2-0.7c-0.2,0-0.3-0.2-0.2-0.3
		C14.4,104,14.5,104,14.7,104.1z"/>
	<path class="st0" d="M11.4,83.2c-0.1,0.1-0.2,0.4-0.2,0.7c-0.1,0.6,0.4,1.1,0.2,1.7c-0.1,0.3,0,0.6-0.1,0.9
		c-0.1,0.3,0.1,0.4,0.4,0.2c0-0.3,0.3-0.6,0.3-0.9c-0.1-1.2,0.4-2.2,0.5-3.3c0-0.6,0.5-1.3-0.1-2.1c-0.1,0.4-0.4,0.6-0.3,0.9
		C12.1,82.1,12,82.7,11.4,83.2z"/>
	<path class="st0" d="M16.3,93.6c-0.2,0.1-0.2,0.3-0.2,0.5c0,0.6,0.1,1.2,0.3,1.8c0,0,0,0,0-0.1c0,0,0,0,0,0.1
		c0.1,1.1,0.4,2.2,0,3.2c0,0.1,0,0.2,0,0.3c0,0.3,0.1,0.5,0.4,0.6c0.3,0,0.2-0.2,0.3-0.4c0.3-0.6-0.2-1.5,0.5-2
		c0.1-0.1,0-0.2-0.1-0.3c-0.1-0.1-0.3-0.3,0-0.4c0.2-0.1,0.1-0.3,0-0.4c-0.3-0.3-0.1-0.6,0.1-0.8c0.1-0.2,0.4-0.2,0.3-0.5
		c-0.4,0.1-0.7,0.8-1.2,0.2c-0.2-0.3-0.2-0.6,0.1-0.9c0.2-0.2,0.1-0.4-0.1-0.6C16.5,93.6,16.4,93.5,16.3,93.6z"/>
	<path class="st0" d="M16.4,73.5c-0.7,0.1-1.1,0.7-0.8,1.4c-0.8,0.8-0.8,1.1-0.1,1.5c-0.1,0.6-0.5,1.1,0,1.7
		c0.2-0.1,0.3-0.3,0.4-0.5c0.2-0.7,0.5-1.5,0.7-2.2C16.6,74.7,16.9,74,16.4,73.5z"/>
	<path class="st0" d="M112.4,156.8c0.9,0,1.7,0.3,2.6,0c0.6-0.2,1.1,0.3,1.7,0.1c0.2-0.2,0.4-0.5,0.7-0.6c0.2-0.1,0.4-0.2,0.3-0.5
		c-0.1-0.3-0.4-0.1-0.6-0.1c-1.6,1-3.5,0.3-5.3,0.8C112.1,156.8,112.2,156.8,112.4,156.8z"/>
	<path class="st0" d="M14.1,97.7c-1-0.4-0.9-1.4-1.2-2.2c0,0,0-0.1-0.1-0.1c-0.1-0.4,0.1-0.7,0-1.1c0-0.2,0-0.5-0.3-0.4
		c-0.3,0.1-0.4,0.2-0.3,0.6c0.1,0.4,0.2,0.7,0.3,1.1c-0.3,0.5-0.2,0.9,0.1,1.3c0.2,0.2,0.2,0.5,0.1,0.7c-0.2,0.7-0.1,1.4,0,2
		c0.1,0.5,0.3,1,0.1,1.5c-0.1,0.1,0,0.4,0.2,0.5c0.1,0.1,0.2,0,0.3,0c0.2-0.1,0.2-0.3,0.1-0.5c0-0.1-0.1-0.3,0-0.3
		c0.5-0.4,0.1-0.6-0.2-0.8c-0.1-0.1-0.1-0.2-0.1-0.4c0.3-0.3,0.2-0.7,0.4-1.1C14.3,98.4,14.3,98.4,14.1,97.7z"/>
	<path class="st0" d="M2.5,87.4c0.6-0.5,0.6-0.5,0.7-1.3c0.1-0.5,0.2-1,0.6-1.4c0.4-0.3,0-0.6-0.1-0.9c-0.1-0.2-0.3-0.3-0.5-0.1
		c-0.5,0.1-1.1,0.2-1.2,0.9c0,0.3,0,0.6-0.2,0.9c-0.1,0.1,0,0.3,0,0.3c0.1,0.1,0.2,0,0.3-0.1c0.4-0.4,0.4-0.1,0.5,0.2
		c0,0.1,0,0.3,0,0.4C2.6,86.6,2.3,87,2.5,87.4z"/>
	<path class="st0" d="M39,43.2c0.2,0,0.5-0.2,0.4-0.4c-0.2-0.5,0.2-0.7,0.5-0.9c0.3-0.3,0.7-0.5,0.5-1c0-0.3,0.2-0.6-0.2-0.7
		c-0.2-0.1-0.4,0.2-0.4,0.3c-0.2,0.8-1.1,1.2-1.3,2c0,0.2-0.4,0.3-0.2,0.5C38.5,43.3,38.8,43.3,39,43.2z"/>
	<path class="st0" d="M13.2,105c0.3-0.1,0.2-0.3,0.1-0.6c-0.1-0.2,0-0.4,0-0.6c0-0.3-0.6-0.8-0.7-0.6c-0.3,0.3-0.8,0.6-0.7,1.1
		c0.1,0.6,0.1,1.1,0.2,1.7l0,0c-0.1,0.7-0.1,1.5,0,2.2c0,0.1,0,0.2,0,0.4c0.1,0.1,0,0.3,0.2,0.3c0.2,0,0.3-0.2,0.3-0.3
		c0-0.1,0-0.1,0-0.2c0,0.2,0.1,0.3,0.2,0.5c0,0.3,0,0.6,0,0.8c-0.1,0.2-0.3,0.5-0.4,0.7c-0.5,0.6-0.3,1.2,0.4,1.3
		c0.4,0.1,0.4-0.1,0.4-0.3c0-0.4,0-0.8,0-1.2c0.1-0.7,0.1-1.3,0.2-2c0.1-0.7-0.2-1.4,0-2.1c0.1-0.2-0.1-0.5-0.4-0.5
		c-0.3,0-0.2,0.3-0.2,0.5c0.1,0.4,0,0.7,0,1.1c-0.5-0.2-0.2-0.6-0.3-0.9c-0.3-0.6,0.1-1.1,0-1.7c0.2,0.1,0.2,0.2,0.3,0.2
		C12.9,104.8,12.9,105.1,13.2,105z"/>
	<path class="st0" d="M135.4,179.5c0.1-0.1,0.2-0.2,0.1-0.3c-0.1-0.1-0.3-0.1-0.4,0.1c-0.5,0.5-1.1,0.7-1.7,1
		c-0.7,0.3-1.3,0.8-1.9,1.2c-0.7,0.1-1.2,0.4-1.5,1.1c-0.1,0.3-0.1,0.5,0.4,0.4c0.3,0,0.6,0,0.8-0.1c1.1-0.3,1.9-1,2.4-1.9
		c0.1-0.3,0.4-0.5,0.7-0.6C134.8,180.2,135.1,179.9,135.4,179.5z"/>
	<path class="st0" d="M15.1,86.2C15,86.1,15,86,14.8,86c-0.2,0-0.1,0.1-0.1,0.3c0.1,0.4,0,0.8-0.1,1.3c-0.3,0.8-0.6,1.7-0.2,2.6
		c0.6-0.9,0.9-1.8,0.8-2.8C15.2,86.9,15.4,86.5,15.1,86.2z"/>
	<path class="st0" d="M20.9,68.7c0,0,0.1,0,0.2-0.1c0.4-0.6,0.8-1.2,1-1.9c0.1-0.2-0.2-0.4-0.3-0.5c-0.2-0.1-0.4-0.1-0.5,0
		c-0.2,0.2-0.3,0.3-0.1,0.6c0.2,0.2,0,0.5-0.2,0.7c-0.2,0.2-0.2,0.5-0.3,0.8C20.5,68.5,20.6,68.7,20.9,68.7z"/>
	<path class="st0" d="M12,89.3c0,0.4,0.2,0.9-0.1,1.3c-0.1,0.1,0.1,0.3,0.2,0.3c0.1,0.1,0.2,0,0.3-0.1c0.5-0.6,0.7-1.2,0.7-1.8
		c0.1-0.7-0.2-0.7-0.6-0.5C12.2,88.6,12.1,88.9,12,89.3z"/>
	<path class="st0" d="M26.3,61c0.5-0.2,0.7-0.7,0.4-1.2c-0.2-0.3-0.5-0.3-0.8-0.1c-0.3,0.3-0.9,0.2-0.8,0.9
		c-0.3,0.4-0.2,0.8-0.3,1.5C25.4,61.5,25.8,61.2,26.3,61z"/>
	<path class="st0" d="M87.1,193.6c-0.3-0.1-0.6-0.2-0.8-0.3c-0.2-0.3-0.4-0.5-0.8-0.2c-0.2,0-0.4,0-0.6,0c-0.2,0-0.5,0-0.7,0.2
		c-0.4,0.3,0,0.7-0.1,1c0.1,0.1,0.3,0.2,0.4,0.3c0.2,0.2,0.4,0.3,0.6,0.4c0.7,0.3,0.9,0.2,1.3-0.5c0.3-0.1,0.6-0.2,0.8-0.4
		c0.1,0,0.1,0,0.2,0C87.7,193.8,87.6,193.6,87.1,193.6z"/>
	<path class="st0" d="M8,101.6c0.2,0.1,0.4,0.4,0.5,0.1c0.1-0.3,0.3-0.7-0.2-0.9c-0.2-0.1-0.3-0.2-0.3-0.4c0-0.5-0.3-0.8-0.9-0.9
		c0.5,0.7,0.5,1.5,0.2,2.3C7.6,101.7,7.8,101.4,8,101.6z"/>
	<path class="st0" d="M120.2,186.9c-0.6,0.3-1.2,0.4-1.8,0.6c-0.4,0.1-0.8,0.4-1.2,0.8c1.3,0.1,2.2-0.7,3.2-1.1
		c0.1,0,0.2-0.2,0.1-0.3C120.5,186.8,120.3,186.9,120.2,186.9z"/>
	<path class="st0" d="M13,84.7c-0.3,0.4-0.3,2.1,0.3,2.6c0.3-0.9,0.4-1.7,0.1-2.6C13.3,84.5,13.1,84.4,13,84.7z"/>
	<path class="st0" d="M7.9,91c0.2-0.2,0.5-0.3,0.3-0.7C8.1,90.1,8,90,7.7,90c-0.3,0.1-0.5,0.3-0.6,0.6c-0.1,0.5-0.2,1.1,0.2,1.6
		c0.1,0.1,0.1,0.3,0.3,0.1C7.6,91.8,7.5,91.4,7.9,91z"/>
	<path class="st0" d="M15.5,78.7c-0.2,0-0.3,0-0.3,0.3c0,0.2,0,0.3,0,0.5c-0.2,0.4,0,1.1-0.7,1.3c0-0.2,0-0.5-0.3-0.5
		c-0.3,0-0.2,0.3-0.2,0.5c0,0.2,0,0.5,0,0.7c-0.1,0.3-0.5,0.6-0.1,0.8c0.3,0.2,0.5-0.3,0.7-0.5c0.1,0,0.1-0.1,0.1-0.2
		c0.5-0.8,0.9-1.7,1.1-2.7C15.9,78.8,15.7,78.7,15.5,78.7z"/>
	<path class="st0" d="M27.7,56.2c-0.5,0-0.5,0.6-0.6,1c0,0.2,0,0.5,0.4,0.4c0.4-0.1,0.9-0.3,0.9-0.7C28.4,56.5,28,56.1,27.7,56.2z"
		/>
	<path class="st0" d="M8.7,115.8c0,0-0.1,0.1-0.2,0.1c-0.1,0.1,0,0.2,0.1,0.3c0.5,0.5,0.6,1,0.2,1.6c-0.1,0.2-0.1,0.3,0.1,0.4
		c0.2,0.1,0.3,0,0.4-0.1c0.1-0.2,0.1-0.4,0-0.6c-0.1-0.2-0.1-0.4,0-0.6C9.7,116.2,9.4,115.8,8.7,115.8z"/>
	<path class="st0" d="M150.8,147.9c0.1,0,0.1,0,0.2,0c0.6-0.3,1.3-0.7,1.9-1c0.6-0.2,1.1-0.5,1.6-0.9c0.4-0.2,0.7-0.4,1.1-0.4
		c0.4,0,0.9-0.6,1-1.1c-0.8,0.5-1.6,0.8-2.4,1.2c-0.5,0.2-1.1,0.4-1.5,0.8c-0.3,0-0.7,0.2-0.9-0.2c0,0-0.2-0.1-0.3,0
		c-0.2,0.1,0,0.2,0.1,0.3c0.2,0.3,0.1,0.4-0.2,0.5c-0.2,0.1-0.6,0.2-0.7,0.5c-0.5,0.1-1,0.2-1.5,0.4c0,0.1,0,0.1,0.1,0.2
		C149.9,148.3,150.3,148,150.8,147.9z"/>
	<path class="st0" d="M10.1,96.2c0.4-0.6,0.2-1.2,0.1-1.8c0-0.2,0-0.5-0.3-0.6c-0.1,0-0.2,0-0.2,0.1c-0.1,0.2-0.2,0.5,0,0.7
		c0.1,0.2,0.3,0.4,0.1,0.6C9.6,95.7,9.8,95.9,10.1,96.2z"/>
	<path class="st0" d="M127.1,154.4c0.3,0,0.6,0.2,0.8,0.4c0.5,0.3,0.5-0.2,0.7-0.5c-0.3-0.7-0.6-0.8-1.5-0.2
		C127,154.3,127,154.4,127.1,154.4z"/>
	<path class="st0" d="M14.3,79.3c0.2,0,0.2-0.2,0.2-0.4c0.1-0.4,0.1-0.8,0.2-1.3c0-0.1,0.1-0.2-0.1-0.3c-0.2-0.1-0.3,0.1-0.4,0.2
		C14,78,14.1,78.5,14,78.9C13.9,79.1,14.2,79.3,14.3,79.3z"/>
	<path class="st0" d="M42.4,40.3C42.4,40.3,42.4,40.3,42.4,40.3c0.6-0.2,0.8-0.6,0.9-1c0-0.2-0.2-0.4-0.4-0.3
		c-0.4,0.2-0.6,0.5-0.7,1C42.2,40.1,42.2,40.3,42.4,40.3z"/>
	<path class="st0" d="M9.6,83.7c0,0.4-0.2,0.7-0.4,1.1c-0.2,1.4-0.5,2.8-0.7,4.2c0.1,0,0.2,0,0.2,0.1c0.3-0.5,0.7-0.9,0.6-1.5
		c0-0.8,0.3-1.4,0.4-2.2c0.1-0.2,0.1-0.4,0.1-0.5c0.1-0.7,0.2-1.4,0.3-2.2C9.6,83,9.6,83.3,9.6,83.7z"/>
	<path class="st0" d="M162.8,153.8c-0.1,0-0.2,0-0.3,0.1c-0.2,0.3-0.4,0.6-0.6,0.9c-0.1,0.1-0.1,0.4,0.1,0.5
		c0.2,0.1,0.3-0.1,0.4-0.2c0.2-0.3,0.3-0.7,0.5-1.1C163,153.9,162.9,153.8,162.8,153.8z"/>
	<path class="st0" d="M82.9,192.2c-0.3-0.1-0.8-0.4-0.9,0c-0.1,0.5,0.5,0.4,0.8,0.5c0.1,0,0.3-0.1,0.4,0c0.1,0,0.3,0,0.3-0.1
		C83.4,192.3,83.1,192.3,82.9,192.2z"/>
	<path class="st0" d="M123.6,185.1c-0.1,0.3,0,0.5,0.3,0.7c0.2-0.3,1.1,0,0.8-0.8C124.4,184.3,124,185,123.6,185.1z"/>
	<path class="st0" d="M155.3,147.4c0.6,0.1,1.1-0.3,1.4-0.9C156,146.4,155.8,147,155.3,147.4z"/>
	<path class="st0" d="M9.4,138.9c-0.3-0.2-0.5-0.6-0.6-0.9c0-0.1-0.1-0.1-0.2-0.2c-0.1,0-0.2,0.1-0.2,0.2c0.2,0.4,0.3,0.8,0.5,1.2
		c0.1,0.2,0.3,0.2,0.4,0.1C9.5,139.2,9.5,139,9.4,138.9z"/>
	<path class="st0" d="M162.6,155.5c-0.4,0.1-0.7,0.4-1,0.7c-0.1,0.1-0.1,0.3,0.1,0.4c0.2,0.1,1.1-0.6,1.1-0.9
		C162.9,155.5,162.8,155.5,162.6,155.5z"/>
	<path class="st0" d="M9,96.6c0-0.4-0.1-0.8,0.2-1.1c0.1-0.2,0.1-0.3,0-0.5c0.1-0.2-0.1-0.4,0.1-0.6c0-0.1,0-0.2,0-0.3
		c0-0.3,0.1-0.6,0-0.8c-0.3-0.4-0.3,0.3-0.7,0.3c-0.2,0-0.3,0.1-0.5,0.1c-0.2-0.3-0.3-0.3-0.5,0c-0.2,0.4-0.3,0.7,0,1.1
		c0.2,0.2,1,0.2,0.2,0.7c-0.2,0.1-0.3,0.2-0.1,0.4c0.1,0.5,0.2,1,0.2,1.5c0,0.3,0.3,0.5,0.5,0.4c0.3-0.1,0.1-0.3,0-0.5
		c-0.2-0.3,0-0.5,0.2-0.6c0.1-0.1,0.1-0.1,0.1-0.2C8.6,96.6,8.8,96.6,9,96.6z M8.5,96.3c-0.1-0.1-0.2-0.1-0.3-0.2c0,0,0,0,0,0
		c0,0,0,0,0,0c0,0,0,0,0,0c0.1,0,0.2,0,0.3,0C8.5,96.1,8.5,96.2,8.5,96.3z"/>
	<path class="st0" d="M150.8,154.3C150.8,154.3,150.8,154.3,150.8,154.3C150.8,154.3,150.8,154.3,150.8,154.3L150.8,154.3
		C150.8,154.3,150.8,154.3,150.8,154.3C150.8,154.3,150.8,154.3,150.8,154.3C150.8,154.3,150.8,154.3,150.8,154.3
		C150.8,154.3,150.8,154.3,150.8,154.3C150.8,154.3,150.8,154.3,150.8,154.3z"/>
	<path class="st0" d="M151.2,153.8c0.2-0.1,0.4-0.2,0.3-0.4c-0.2-0.2-0.4-0.1-0.6,0.1c-0.1,0.1-0.1,0.1-0.2,0.2
		c-0.1,0.1-0.5,0.1-0.4,0.3c0.1,0.2,0.3,0.4,0.5,0.3C150.9,154.1,151,153.9,151.2,153.8z"/>
	<path class="st0" d="M4,99.1c-0.2,0-0.4,0.1-0.4,0.4c0,0.1,0.2,0.3,0,0.4c-0.1,0.2-0.2,0.4,0.1,0.4c0.2,0,0.5-0.1,0.4-0.4
		c0-0.2,0-0.3,0.1-0.5C4.3,99.2,4.3,99.1,4,99.1z"/>
	<path class="st0" d="M30.2,45.3c1.1,0.2,1.6-0.7,2.2-1.3c0.1,0,0.2,0,0.3,0c0.3,0,0.6,0,0.5,0.4c-0.3,0.4-0.6,0.9-0.5,1.5
		c0.4-0.6,1-0.8,1.4-1.3c0.2-0.3,0.7-0.5,0.5-1c0-0.2-0.1-0.5-0.1-0.7c0.6-0.5,1.3-0.8,1.8-1.4c-0.3,0-0.4-0.1-0.6-0.1
		c-0.3-0.2-0.6-0.3-0.9-0.1c-0.2,0.1-0.5,0.1-0.6,0c-0.3-0.4-0.7-0.1-1,0c-0.2,0.1-0.3,0.3-0.2,0.5c0.3,0.5-0.1,0.7-0.3,1
		C32.5,43,32.1,43,32,43.3c-0.2,0.2-0.5,0.4-0.6,0.6c0.1,0.2,0.4,0.1,0.4,0.3c0,0.3-0.3,0.4-0.6,0.3c-0.4-0.1-0.7,0.1-0.9,0.3
		C30.1,44.9,29.8,45.1,30.2,45.3z"/>
	<path class="st0" d="M29.1,53.2c-0.6,0.3-0.5,0.9-0.9,1.4c0,0.1,0,0.2,0,0.3c0.1,0,0.2,0,0.3-0.1c0.3-0.2,0.5-0.5,0.8-0.8
		c0,0,0-0.1,0-0.1c0,0,0,0.1,0,0.1c0.1-0.2-0.1-0.5,0.1-0.7c0.3-0.3,0.4-0.6,0.3-1c0-0.1-0.2-0.1-0.2-0.1
		C29.2,52.5,29.2,52.8,29.1,53.2z"/>
	<path class="st0" d="M36,47.3c0.1,0.1,0.2,0,0.3-0.1c0.3-0.4,0.5-0.7,0.7-1.3c-0.8,0.1-0.7,0.8-1,1.2C35.9,47.1,35.9,47.2,36,47.3z
		"/>
	<path class="st0" d="M116.7,190.2c-0.1,0.1-0.1,0.3,0.1,0.4c0.2,0.1,0.3,0,0.3-0.2c0-0.4,0.5-0.4,0.6-0.9
		C117.2,189.7,116.8,189.7,116.7,190.2z"/>
	<path class="st0" d="M18.9,102.9c0.1-0.4,0.3-0.8,0.2-1.3c-0.4,0.3-0.5,0.7-0.7,1c-0.1,0.2,0,0.3,0.1,0.4
		C18.7,103.1,18.9,103.1,18.9,102.9z"/>
	<path class="st0" d="M17,80.9c0.4,0,0.3-0.5,0.4-0.8c0-0.2,0.1-0.6-0.3-0.6c-0.4,0.1-0.1,0.5-0.2,0.7C16.9,80.5,16.8,81,17,80.9z"
		/>
	<path class="st0" d="M37.8,44.9c0.3-0.1,0.5-0.4,0.7-0.7c0-0.3-0.2-0.2-0.4-0.2c-0.4,0-0.6,0.2-0.6,0.6
		C37.6,44.8,37.7,45,37.8,44.9z"/>
	<path class="st0" d="M20.9,64.9c-0.7,0.4-0.9,0.7-0.7,1.4c0.1-0.2,0.3-0.4,0.4-0.6C20.8,65.4,21,65.2,20.9,64.9z"/>
	<path class="st0" d="M16.2,91.5c-0.2,0-0.3,0.2-0.3,0.3c0,0.4,0.1,0.7,0.4,1c0.2-0.4,0.1-0.7,0.1-1C16.5,91.7,16.4,91.5,16.2,91.5z
		"/>
	<path class="st0" d="M153.4,149.9c-0.1,0.1,0,0.2,0.1,0.2c0.2,0.1,1-0.4,1-0.5c0-0.1-0.1-0.2-0.2-0.2
		C153.9,149.3,153.7,149.7,153.4,149.9z"/>
	<path class="st0" d="M35.4,45.5c0.1,0.2,0.4,0.3,0.6,0.2c0.5-0.4-0.4-0.6-0.1-1C35.6,45,35.2,45.1,35.4,45.5z"/>
	<path class="st0" d="M51.2,181.6c-0.2,0-0.4-0.1-0.5,0.1c-0.1,0.2,0,0.3,0.1,0.5c0.3-0.1,0.5,0.2,0.8,0.1
		C51.8,181.9,51.5,181.7,51.2,181.6z"/>
	<path class="st0" d="M123.2,155.6c0.6,0,1.1,0,1.7,0c0.5,0,0.6-0.5,0.9-0.6c0.1-0.1,0.1-0.1,0.1-0.2c-0.1-0.1-0.2-0.1-0.3-0.1
		c-0.3,0.2-0.6,0.3-0.8,0.5c-0.5,0.2-1.1-0.2-1.7,0.1c-0.1,0.1-0.3,0-0.2,0.2C122.9,155.7,123,155.6,123.2,155.6z"/>
	<path class="st0" d="M51.4,100.9c-0.3,0.3-0.8,0.1-0.9,0.5c0,0.1,0.2,0.2,0.4,0.2c0.4-0.1,0.6-0.3,0.8-0.6
		C51.7,100.9,51.5,100.9,51.4,100.9z"/>
	<path class="st0" d="M159,146.3c0.3-0.2,0.7-0.5,1-0.8c-0.5,0-0.9,0.1-1.2,0.4c-0.1,0.1-0.3,0.2-0.1,0.3
		C158.7,146.4,158.9,146.3,159,146.3z"/>
	<path class="st0" d="M19.6,70.5c0.2,0.1,0.3,0,0.3-0.2c0.1-0.3,0.2-0.6,0.1-1c-0.2,0.3-0.3,0.5-0.5,0.8
		C19.3,70.3,19.4,70.4,19.6,70.5z"/>
	<path class="st0" d="M18,92.7c0.3,0,0.4-0.3,0.4-0.6c0-0.2,0-0.3-0.3-0.4c-0.1,0.1-0.4,0.2-0.4,0.5C17.7,92.5,17.7,92.7,18,92.7z"
		/>
	<path class="st0" d="M40.9,40.5c0.4-0.1,0.5-0.3,0.6-0.7c-0.1-0.1-0.1-0.3-0.3-0.2c-0.4,0.1-0.4,0.5-0.5,0.7
		C40.6,40.4,40.8,40.5,40.9,40.5z"/>
	<path class="st0" d="M16.5,87c0,0.1,0,0.4,0.2,0.4c0.3,0,0.3-0.3,0.3-0.6c0-0.2,0-0.4-0.2-0.3C16.4,86.5,16.5,86.7,16.5,87z"/>
	<path class="st0" d="M117.5,156.8c0.4-0.1,0.7-0.3,1.1-0.4c0.2-0.1,0.5-0.1,0.7-0.2c0.2,0,0.5,0,0.4-0.3c0-0.2-0.3-0.3-0.5-0.2
		c-0.4,0.1-0.8,0.3-1.2,0.2c0,0,0,0.1,0,0.1C117.9,156.4,117.2,156.2,117.5,156.8z"/>
	<path class="st0" d="M162.5,151.3c-0.4,0.3-0.7,0.6-1,0.9c-0.5,0.2-0.7,0.7-1.1,1c-0.1,0.2-0.2,0.3,0.2,0.3c0.4-0.3,0.8-0.6,1.1-1
		C161.9,152.1,162.6,152,162.5,151.3z"/>
	<path class="st0" d="M156,153c-0.2-0.1-0.3,0.1-0.5,0.2c-0.1,0.1-0.1,0.2,0,0.3c0.2,0.1,0.3,0.3,0.5,0.4c0.1,0,0.2-0.1,0.2-0.2
		c0-0.1-0.1-0.2-0.2-0.2C155.9,153.4,156.3,153.1,156,153z"/>
	<path class="st0" d="M5.5,72.8c0.3-0.1,0.2-0.4,0.3-0.6c0-0.2,0-0.3-0.2-0.3c-0.3,0-0.3,0.3-0.3,0.5C5.3,72.5,5.3,72.8,5.5,72.8z"
		/>
	<path class="st0" d="M17,114c0.2,0,0.2-0.2,0.3-0.3c0-0.3-0.1-0.4-0.3-0.5c-0.2-0.1-0.2,0.2-0.2,0.3C16.7,113.8,16.8,114,17,114z"
		/>
	<path class="st0" d="M36.2,43.4c0.4,0.2,0.6,0.3,0.9-0.1c0.1-0.1,0-0.2-0.1-0.3C36.6,42.9,36.4,43.1,36.2,43.4z"/>
	<path class="st0" d="M159.6,153.8c-0.1,0.5,0,0.6,0.7,0.4C160.3,153.7,160,153.7,159.6,153.8z"/>
	<path class="st0" d="M11.9,95c0-0.3,0-0.7-0.5-0.7c-0.5,0.1,0,0.4-0.1,0.6C11.5,95.3,11.7,95.2,11.9,95z"/>
	<path class="st0" d="M36.3,42.5c0.2,0.1,0.3,0,0.4-0.1c0.1-0.1,0.4-0.2,0.3-0.5c0-0.1-0.1-0.1-0.2-0.1c-0.3,0-0.3,0.2-0.3,0.4
		C36.4,42.2,36.2,42.3,36.3,42.5z"/>
	<path class="st0" d="M6.1,93.1c0.1,0.1,0,0.4,0.2,0.3c0.2,0,0.2-0.2,0.2-0.4c0-0.3,0-0.7,0-1c0-0.6,0-1.3,0-1.9
		c0-0.5-0.3-0.8-0.7-0.9c-0.5-0.2-0.3,0.4-0.4,0.6c-0.1,0.1-0.2,0.1-0.3,0.2c-0.2,0-0.4,0-0.6,0c-0.1-0.5,0.4-0.9,0.2-1.4
		C5,88.4,5,88.2,5.1,88c-0.2-0.7,0.1-1.4,0.4-2c0,0,0.1-0.1,0.1-0.1c0.1-0.1,0.2-0.2,0.2-0.4c0-0.2,0.1-0.4,0.1-0.6
		c0-0.3,0.1-0.5,0.3-0.7c-0.1,0.2-0.2,0.5-0.3,0.7c0,0.2-0.1,0.4-0.1,0.6c0,0.2,0,0.4,0.1,0.5c0,0.6,0.2,1.3-0.1,1.9
		c-0.1,0.2-0.1,0.4,0.1,0.5c0.2,0.1,0.5,0.1,0.6-0.1c0.1-0.2,0.2-0.4,0.2-0.7c0-1.2,0.6-2.2,1.1-3.3c0-0.1,0.1-0.1,0.2-0.2
		c0.6-0.1,0.7-0.6,0.8-1c0.2-0.9,0.2-1.7,0.6-2.6c0.2-0.5,0.7-1,0.2-1.7c-0.1-0.2,0.1-0.5,0.3-0.7c0.1-0.2,0.3-0.4,0.4-0.6
		c0.6-0.1,0.6-0.7,0.7-1.1c0.2-0.5,0.3-0.9,0.5-1.4c0.4-0.8,1-1.6,0.8-2.7c0-0.1,0.1-0.3,0.2-0.4c0.9-0.5,0.8-1.3,0.8-2.1
		c0.1-0.1,0-0.4,0.3-0.3c0.3,0.1,0.2-0.1,0.3-0.3c0.8-0.6,1.3-1.5,1.7-2.4c0.2-0.4,0.3-0.7,0.9-0.7c0.8,0,1.4-1,1-1.7
		c-0.2-0.3-0.1-0.4,0.2-0.5c0.6-0.3,0.8-0.8,0.4-1.3c-0.3-0.5-0.1-1.2,0.3-1.6c0.6-0.5,1.2-1.1,1.6-1.8c0.8-1,1.3-2.2,2.2-3.1
		c0.1-0.1,0.3-0.2,0.4-0.4c0,0,0,0,0,0c0.6-0.5,1.1-1.1,1.2-1.9c0.1-0.1,0.2-0.2,0.3-0.4c0.3-0.8,0.9-1.5,1.5-2.1
		c0.3-0.3,0.6-0.5,0.7-0.9c0.1-0.7,0.7-0.9,1.3-1.1c0.6-0.4,1.3-0.8,1.9-1.2c-0.2-0.3-0.9,0.1-0.6-0.6c0.2-0.3,0.2-0.7,0.5-1
		c0.2-0.1,0.5-0.3,0.3-0.5c-0.2-0.3-0.4,0-0.7,0c-0.3,0-0.4,0.1-0.2,0.4c0.2,0.3,0,0.5-0.1,0.7c-0.3,0.1-0.7,0.3-0.7,0.5
		c-0.2,0.8-0.9,0.8-1.5,1.1c-0.7,0.3-1.5,0.4-1.9,1.2c-0.3,0.4-0.9,0.2-1.1,0.7c-0.4,0.4-0.8,0.9-1.3,1.3c-1.1,1-2,2.1-2.8,3.3
		c-0.2,0.3-0.5,0.5-0.5,0.9c0.5,0,0.6-0.4,0.8-0.6c0.6-0.2,0.8-0.9,1.3-1.1c0.1,0,0.2,0,0.4,0c0,0,0,0,0,0c-0.4,0.5-0.7,1-1,1.7
		c-0.2,0.4-0.3,0.9-0.6,1.2c-0.1,0.1-0.1,0.2-0.2,0.3c-0.3,0-0.5-0.1-0.7-0.4c-0.1-0.2-0.3-0.1-0.5-0.1c0,0.1-0.1,0.1-0.1,0.2
		c-0.7,0.3-1.1,0.9-1.4,1.5c-0.5,0.2-0.6,0.8-1,1.1c0.2,0.5,0.4-0.1,0.5,0c0.1,0,0.2-0.1,0.3-0.1c0,0,0,0-0.1,0
		c0.1,0.1,0.1,0.1,0,0.2c-0.4,0.8-0.3,1.6-0.7,2.4c-0.1,0.2-0.2,0.5-0.5,0.4c-0.7-0.3-0.8,0.2-0.9,0.6c-0.1,0.2-0.2,0.4-0.3,0.5
		c-0.4,0-0.8-0.3-0.5-0.5c0.6-0.5,0.7-1.3,1.3-1.8c0.4-0.3,0.5-0.7,0.3-1.2c-0.8,0.8-1.3,1.9-2.1,2.8c-0.2,0.1-0.3,0.3-0.5,0.4
		c-0.4,0.1-0.5,0.3-0.6,0.7c0-0.2-0.1-0.3-0.2-0.6c0-0.5,0.6-0.7,0.6-1.2c-0.1,0-0.3-0.1-0.4,0c-0.3,0.5-0.8,1-1.2,1.5
		c-0.2,0.3,0.2,0.5,0.3,0.7c0.1,0.2,0.3,0.4,0.5,0.1c0.2-0.1,0.3-0.3,0.4-0.4C12,65.3,12,65.6,11.9,66c0,0.1-0.1,0.3-0.1,0.4
		c-0.4,0.2-0.7-0.4-0.9-0.2c-0.6,0.5-1,1.1-1.6,1.5c0,0-0.1,0.2,0,0.2c0.4,0.4,0.2,0.7-0.1,1c-0.2,0.2-0.2,0.5,0,0.6
		c0.1,0.2,0.3,0.1,0.5-0.1c0.3-0.2,0.5,0.2,0.4,0.3c-0.3,0.5-0.1,1-0.3,1.5c-0.3,0.5-0.5,1.2-0.5,1.8c-0.4,0.5-0.7,0.6-1.1,0
		c-0.3-0.4-0.4-0.2-0.6,0C7.1,73.5,7,74,6.7,74.3c-0.7,0.5-1.1,1.1-0.8,1.9c0,0.6-0.2,1.1-0.9,1.2c-0.1,0-0.1,0.2-0.2,0.3
		c0,0.4-0.2,0.8-0.5,1.1c-0.2,0.5-0.7,0.8-0.7,1.5c0,0.4-0.4,0.5-0.7,0.3c-0.3-0.3-0.5-0.1-0.8,0.1c-0.7,0.3-0.4,0.9-0.4,1.4
		c0,0.3,0,0.6,0.3,0.6c0.2,0.1,0.3-0.2,0.4-0.4c0.3-0.5,0.6-0.4,0.9,0c0.3,0.3,0.7,0.7,1.1,0.8c0.3,0.1,0.2-0.4,0.3-0.7
		c0-0.1,0.1-0.2,0.2-0.2c0.2,0,0.2,0.1,0.2,0.2c0.1,0.9,0.1,1.9,0,2.8c-0.2,1.1-0.2,2.3-0.3,3.4c0,0.3-0.1,0.6-0.3,0.9
		C4.1,89.7,4,89.9,4.3,90c-0.1,0.2-0.2,0.5-0.3,0.7c-0.1,0.3-0.2,0.5-0.4,0.7c-0.2,0.1-0.4,0.4-0.7,0.3c-0.3-0.1-0.4-0.5-0.3-0.8
		c-0.2-0.2-0.3,0-0.3,0.2c0,0.2,0,0.4-0.1,0.5c0,0.2-0.3,0.4-0.1,0.6c0.3,0.4,0,0.7-0.3,0.9c-0.1,0.1-0.2,0.1-0.2,0.3
		c-0.1,0.3-0.3,0.6-0.6,0.3c-0.3-0.3-0.3-0.1-0.6,0c-0.7,0.3,0,0.7-0.1,1c0,0.1,0,0.1,0,0.2c0,0.4-0.1,1,0.4,1
		c0.5,0,0.1-0.6,0.1-0.9c0.2-0.2,0.4-0.3,0.5-0.6c0.1-0.3,0.4-0.3,0.6-0.2c-0.2,0.6,0.4,0.5,0.6,0.7c0,0.3-0.1,0.5-0.3,0.8
		c-0.3,0.4-0.3,0.7,0.2,1c0.5,0.3,1-0.1,1.4,0.1c0,0.4-0.6,0.8,0.1,1.1c0.2-0.3,0.2-0.8,0.9-0.8c-0.3-0.2-0.5-0.3-0.7-0.5
		c-0.1-0.2-0.2-0.3-0.1-0.5c0.4,0,0.8-0.1,0.7-0.5c-0.2-0.6,0.3-0.6,0.5-0.9c0.3-0.3,0.4-0.7,0.3-1.1c0-0.2-0.1-0.5,0.1-0.7
		c0.1-0.2,0.2-0.4,0.5-0.2c0,0,0,0,0,0C6,92.9,6.1,93,6.1,93.1z M21.5,54c0.1-0.1,0.1-0.2,0.2-0.3c0.7-0.5,1-1.2,1.7-1.6
		c0.3-0.2,0.5-0.5,0.5-0.9c0.4,0,0.6-0.3,0.6-0.7c0.1,0.1,0.3,0.1,0.4,0.1c-0.5,1.1-1.4,1.8-1.9,2.9c-0.4,0-0.7,0.1-1,0.4
		c-0.1,0.2-0.3,0.3-0.5,0.2C21.5,54.1,21.5,54,21.5,54z M16.9,59.5c0.4,0,0.8-0.2,1.1-0.4c0.1,0,0.1-0.1,0.1-0.2
		c0,0.1-0.1,0.3-0.2,0.4c-0.2,0-0.3,0.1-0.5,0.3c-0.1,0-0.2,0-0.3,0c-0.1,0-0.1,0-0.2,0.1c0,0-0.1,0.1-0.1,0.1
		C16.9,59.7,17,59.6,16.9,59.5z M10.4,72.1c0-0.7,0.5-1.3,0.8-2c0.2-0.3,0.3-0.6,0.3-0.9c0.4,0.4,0.5,0.3,1.1-0.3c0,0,0.1,0,0.1,0
		c0,0,0,0,0,0c-0.2,0.2-0.2,0.5,0.1,0.9c-0.2,0.6-0.4,1.2-1,1.6c-0.2-0.2,0.1-0.4-0.2-0.5c-0.2,0-0.4,0.2-0.4,0.4
		c-0.1,0.3-0.3,0.6-0.3,1c0,0.5-0.3,0.9-0.7,1.2c-0.1,0-0.1-0.1-0.1-0.1C10,72.9,10.1,72.5,10.4,72.1z M7.8,77.5
		c0.5-0.2,0.8-0.7,1.2-1.2c0.1,0.4,0,0.8,0.3,1c0.1,0.1,0,0.3-0.1,0.4c-0.3,0.2-0.7,0.3-1,0.4c-0.2,0.1-0.3,0-0.4-0.1
		C7.6,77.8,7.6,77.6,7.8,77.5z M6.7,80.6c0-0.2,0-0.6,0.3-0.6c0.3,0,0.2,0.3,0.3,0.5c0,0.3,0,0.5-0.3,0.6
		C6.7,81.1,6.7,80.8,6.7,80.6z M6.7,82C6.9,82,7,82.1,7,82.3c0,0.2,0,0.5-0.2,0.6c-0.2,0-0.2-0.2-0.2-0.3C6.5,82.3,6.5,82.1,6.7,82z
		 M4.9,80.9c-0.1-0.5-0.2-0.8,0.2-1c0.1-0.1,0.2,0,0.3,0.1C5.5,80.3,5.3,80.6,4.9,80.9z"/>
	<path class="st0" d="M148.7,170.2c-0.2,0.3-0.1,0.4,0.3,0.4c0.2,0,0.3-0.2,0.4-0.4C149.2,169.6,148.9,170.1,148.7,170.2z"/>
	<path class="st0" d="M11.6,123.4c0.1,0,0.1-0.1,0.2-0.2c0.1-0.2-0.1-0.3-0.2-0.5c-0.1,0-0.1-0.2-0.1-0.3c-0.7,0.2-0.1,0.5-0.1,0.8
		C11.4,123.3,11.6,123.4,11.6,123.4z"/>
	<path class="st0" d="M135.6,180c-0.4,0.1-0.4,0.4-0.5,0.6c0,0,0,0.1,0,0.2c0.4-0.1,0.6-0.4,0.7-0.7
		C135.8,180.1,135.7,180,135.6,180z"/>
	<path class="st0" d="M27,58.2c0-0.2-0.1-0.3-0.3-0.3c-0.2,0-0.2,0.2-0.2,0.3c0,0.2,0,0.3,0.2,0.3C27,58.5,27,58.3,27,58.2z"/>
	<path class="st0" d="M100.2,191.7c-0.2,0-0.4,0-0.4,0.2c0,0.2,0.2,0.2,0.4,0.3c0.2,0.1,0.3-0.1,0.4-0.3
		C100.6,191.7,100.4,191.7,100.2,191.7z"/>
	<path class="st0" d="M31.9,46.9c-0.2,0-0.2,0.2-0.2,0.4c0,0.2,0.1,0.3,0.3,0.3c0.2,0,0.3-0.2,0.2-0.4C32.1,47.1,32,46.9,31.9,46.9z
		"/>
	<path class="st0" d="M33.2,51.4c-0.4,0.2-0.1,0.5-0.4,0.8c0.4-0.1,0.6-0.3,0.6-0.7C33.5,51.4,33.3,51.3,33.2,51.4z"/>
	<path class="st0" d="M158.7,149.8c0,0,0,0.1,0.1,0.2c0.2-0.3,0.7-0.2,0.8-0.6c0,0-0.1-0.1-0.1-0.1
		C159.1,149.3,158.9,149.5,158.7,149.8z"/>
	<path class="st0" d="M48.7,101.2c-0.3,0.1-0.4,0.4-0.5,0.9c0.4-0.2,0.7-0.4,0.7-0.7C48.9,101.3,48.8,101.2,48.7,101.2z"/>
	<path class="st0" d="M159.4,143.5c0.3,0,0.4-0.2,0.6-0.6c-0.4,0.1-0.7,0.1-0.8,0.4C159.2,143.4,159.3,143.6,159.4,143.5z"/>
	<path class="st0" d="M126.6,184.3c-0.4-0.2-0.5,0.2-0.9,0.4c0.4,0.2,0.7,0.2,0.9-0.1C126.7,184.4,126.7,184.3,126.6,184.3z"/>
	<path class="st0" d="M37.4,173.3c-0.3,0-0.2-0.3-0.4-0.4c-0.2-0.4-0.7-0.6-1-1c-1.2-1.2-2.5-2.5-3.7-3.7c0-0.1,0-0.1,0-0.2
		c0-0.3-0.1-0.5-0.4-0.5c-0.4,0-0.2,0.4-0.1,0.5c0.1,0.3,0,0.4-0.2,0.5c-0.2,0.6-0.1,0.7,0.7,0.6c0.9,1.3,2.1,2.2,3.3,3
		c0.6,0.2,0.6,0.9,1.1,1.2c0.1,0,0.1,0,0.1,0c0.3,0.1,0.4,0.5,0.7,0.5C37.6,173.7,37.8,173.4,37.4,173.3z"/>
	<path class="st0" d="M63.6,188.6c0,0-0.1,0-0.1,0c0,0.1,0,0.2,0,0.2c0,0,0.1,0,0.1,0c0.2,0,0.4,0.3,0.7,0.2c0,0,0.1-0.1,0-0.2
		C64.1,188.7,63.8,188.6,63.6,188.6z"/>
	<path class="st0" d="M17,85.9c0.2,0.1,0.2-0.2,0.3-0.3c0-0.1,0.1-0.3,0-0.4c-0.2-0.1-0.3,0-0.4,0.1C16.9,85.5,16.8,85.8,17,85.9z"
		/>
	<path class="st0" d="M51.1,63.6c0,0.1,0,0.2,0.1,0.2c0.2,0,0.3-0.2,0.4-0.3c0.1-0.1,0-0.2-0.2-0.2C51.2,63.3,51.1,63.4,51.1,63.6z"
		/>
	<path class="st0" d="M24.6,126.5C24.6,126.5,24.6,126.5,24.6,126.5c-0.1,0-0.2,0-0.3,0c0,0,0,0,0,0c0,0.1,0.1,0.1,0.2,0.1
		C24.6,126.6,24.6,126.6,24.6,126.5z"/>
	<path class="st0" d="M42.8,177.3c-0.2,0-0.6,0-0.6,0c0.2-0.7-1.2-0.9-0.4-1.7c-0.2-0.4,0-1.1-0.5-1.2c-0.4-0.1-0.9-0.1-1.4-0.4
		c-0.2-0.1-0.4,0-0.3,0.2c0.1,0.4-0.2,0.4-0.4,0.5c-0.3,0.1-0.6,0.3-0.2,0.6c0.9,0.8,1.7,1.7,2.7,2.4c0.4,0.3,0.7,0.5,1.2,0.2
		c0.2-0.1,0.2-0.2,0.3-0.4C43.2,177.4,43,177.3,42.8,177.3z"/>
	<path class="st0" d="M29.3,164.2c-0.2-0.3-0.7-0.4-0.8-0.8c0-0.1,0-0.2,0.1-0.3c0.4-0.8,0.3-1.1-0.4-1.6c-0.1-0.1-0.3-0.3-0.4-0.1
		c-0.2,0.1,0,0.3,0.1,0.4c0.2,0.2,0.3,0.5,0.5,0.7c0.3,0.4,0,0.4-0.3,0.4c-0.4-0.2-0.6-0.5-0.8-0.9c-0.2-0.3-0.4-0.4-0.7-0.1
		c-0.1,0.2-0.2,0.4,0,0.5c0.3,0,0.4,0.2,0.5,0.4c0.9,0.3,0.9,1.3,1.4,1.8c0.1,0.1-0.1,0.3-0.3,0.3c-0.3,0.1-0.3,0.2-0.1,0.4
		c0.2,0.1,0.3,0.3,0.5,0.4c0.1,0.4,0.8,0.2,0.8,0.8c0.1,0.3,0.3,0.5,0.6,0.7c0.3,0,0.7-0.1,1,0c0.5-0.1,0.3-0.4,0.2-0.6
		C30.6,165.8,30,165,29.3,164.2z"/>
	<path class="st0" d="M29.8,160.4c0.2,0.3,0.3,0.5,0.6,0.7c0.6-0.2,0.1-0.7,0.3-1C30.4,160.3,30,160,29.8,160.4z"/>
	<path class="st0" d="M32.4,166c0-0.2-0.1-0.3-0.4-0.3c-0.1,0-0.2,0.1-0.2,0.2c0,0.3,0.2,0.3,0.4,0.4
		C32.4,166.3,32.4,166.1,32.4,166z"/>
	<path class="st0" d="M29.1,161.2c0.1,0,0.1-0.2,0-0.2c-0.2-0.1-0.5-0.1-0.8,0C28.6,161.2,28.8,161.4,29.1,161.2z"/>
	<path class="st0" d="M25.9,162.1c0.2,0.2,0.3,0,0.5-0.2c-0.1-0.1-0.3-0.3-0.4-0.4C25.8,161.7,25.7,161.9,25.9,162.1z"/>
	<path class="st0" d="M68.6,183.4c-0.1,0-0.3,0-0.2,0.2c0.1,0.1,0.1,0.4,0.3,0.4c0.2,0,0.3-0.2,0.3-0.3
		C68.9,183.4,68.8,183.5,68.6,183.4z"/>
	<path class="st0" d="M43.3,171c-0.2-0.2-0.5-0.4-0.7-0.7c-0.2-0.2-0.5-0.3-1-0.3c0.4,0.5,0.8,0.9,1.2,1.3c0.1,0,0.3,0.1,0.4,0.1
		c0.1,0,0.2,0.1,0.3,0.1c0.1,0,0.1-0.1,0.2-0.1C43.9,171.3,43.4,171.2,43.3,171z"/>
	<path class="st0" d="M45.2,44.2c0,0-0.1,0-0.1,0c0,0,0,0,0,0c0,0.1,0,0.2-0.1,0.2C45,44.4,45.2,44.4,45.2,44.2
		C45.2,44.2,45.2,44.2,45.2,44.2z"/>
	<path class="st0" d="M39.9,167.9C39.9,167.9,39.9,167.9,39.9,167.9c0-0.1,0-0.2,0-0.3C39.9,167.7,39.9,167.8,39.9,167.9z"/>
	<path class="st0" d="M49.8,173.6c-0.2,0-0.3-0.1-0.6-0.1c0.1,0.1,0.3,0.2,0.4,0.3C49.7,173.7,49.7,173.6,49.8,173.6z"/>
	<path class="st0" d="M53.3,182.4c-0.1-0.1-0.2-0.1-0.2-0.2c-0.2-0.4-0.5-0.7-0.9-1c0,0-0.1,0-0.2,0c-0.2,0-0.4-0.1-0.5-0.2
		c0.3,0.5,0.9,0.7,1.2,1.2c-0.1,0.1-0.1,0.2-0.2,0.3c0.1,0.1,0.1,0.2,0.2,0.3c0.2,0,0.3,0.1,0.5,0.1c0.2,0,0.3,0,0.4-0.2
		C53.7,182.4,53.4,182.5,53.3,182.4z"/>
	<path class="st0" d="M161.1,155.6c-0.2-0.1-0.4-0.1-0.5,0.1c-0.1,0.2-0.2,0.3-0.3,0.3c-0.3-0.3-0.5,0.1-0.8,0.1c0,0,0,0,0,0
		c0,0,0-0.1,0-0.1c0.1-0.1,0.2-0.2,0.2-0.4c-0.1-0.2,0.1-0.4-0.1-0.6c-0.2,0-0.5,0.1-0.7-0.1c-0.2-0.3,0.2-1.1,0.6-1.3
		c0.4-0.1,0.8,0,0.9-0.6c0-0.4,0.2-0.7,0.6-0.9c0.2,0,0.5-0.2,0.4-0.4c-0.2-0.4,0.1-0.5,0.4-0.7c0.2-0.1,0.3-0.2,0.4-0.3
		c0.1-0.2,0.5-0.4,0.2-0.6c-0.2-0.2-0.4,0.1-0.6,0.2c-0.6,0.3-0.9,1.1-1.8,1.1c-0.1,0-0.1,0.2-0.1,0.4c-0.3,0.4-0.7,0.5-1.2,0.5
		c-0.2,0-0.5,0-0.5,0.2c0.1,0.7-0.6,0.6-0.9,1c-0.5,0.1-0.8,0.4-1,0.8c-0.3,0.4-1,0.4-1.3,0.7c-0.7,0.7-1.7,1-2.4,1.8
		c-0.5,0.1-1,0.5-1.6,0.5c0,0,0,0,0,0c0,0,0,0,0-0.1c0.1-0.2,0.4-0.3,0.5-0.5c0-0.1,0.1-0.2,0-0.3c0,0-0.1,0-0.1,0
		c-0.5-0.3-0.4-0.6,0-0.9c0.2-0.1,0.4-0.2,0.5-0.3c0.1-0.1,0.3-0.1,0.4-0.2c0,0,0.1,0,0.1,0c0.2-0.1,0.4-0.1,0.5-0.2
		c0.2,0,0.5,0,0.6-0.3c0.2-0.3,0.3-0.6,0.7-0.8c0-0.2-0.2-0.3-0.3-0.3c0.1-0.1,0.1-0.1,0.2-0.2c0.3-0.6,1.1-0.5,1.4-1.1
		c0.4-0.3,0.9-0.5,1.2-1.1c-0.7,0-0.9,0.6-1.4,0.8c-0.5,0.3-1.1,0.5-1.5,1c-0.1,0.2-0.4,0.2-0.6,0.3c-0.2,0-0.5,0-0.4-0.3
		c0-0.2,0-0.3-0.2-0.3c-0.1,0-0.2,0-0.2,0.1c-0.1,0.1-0.1,0.3,0,0.4c0.1,0.1,0.1,0.2,0.2,0.3c-0.6,0.4-1,1.1-1.9,1.1
		c-0.2,0.2-0.3,0.4-0.5,0.5c-0.7,0.7-1,0.7-1.5,0c0.5-0.1,1.2-0.2,0.8-1c-0.1-0.2,0.1-0.4,0.3-0.5c0.7-0.3,0.7-0.9,0.8-1.5
		c0.2,0,0.4,0.1,0.5-0.1c0.2,0,0.3-0.2,0.4-0.4c-0.1-0.2,0-0.5-0.3-0.6c0,0-0.1,0-0.1,0c0.1,0.1,0.3,0.1,0.5-0.1
		c0.4-0.3,0.7-0.6,1.1-1c0.2-0.2,0.1-0.5,0-0.7c0.5,0.1,0.7-0.5,1.1-0.6c0.2,0,0.5,0,0.4-0.3c-0.1-0.2-0.4-0.5-0.6-0.3
		c-0.4,0.4-0.9,0.2-1.3,0.5c-0.6,0.4-1.2,0.8-1.8,1.1c-0.3,0.1-0.4,0.4-0.6,0.6c-0.3,0.2-0.5,0.5-0.1,0.8c0.1,0.2,0.1,0.6,0.4,0.7
		c0,0.1,0.1,0.2,0.1,0.2c-0.6,0.1-1,0.6-1.5,1c-0.2,0.1-0.3,0.1-0.4-0.2c-0.1-0.3-0.1-0.6-0.3-0.9c-0.3,0-0.5,0.2-0.7,0.4
		c-0.4,0.4-1.1,0.1-1.2,0c-0.3-0.4,0.3-0.4,0.5-0.6c0.1-0.2,0.3-0.3,0.4-0.5c0-0.1,0.3,0,0.2-0.2c-0.1-0.1-0.2-0.2-0.2-0.2
		c-0.4,0.2-0.9,0.1-1.2,0.5c-0.4,0.6-1.1,0.7-1.8,1c-0.2,0.1-0.3,0-0.4-0.2c-0.1-0.2,0-0.3,0.1-0.4c0.2-0.1,0.4-0.3,0.5-0.5
		c0.4-0.4,0.7-1,1.3-1.1c0.2,0,0.4,0,0.3-0.2c0-0.2-0.2-0.3-0.5-0.3c-0.4,0.1-0.8,0.1-1.2,0.2c-0.6,0.3-1.4,0.1-2,0.3
		c-0.2,0.1-0.5,0.1-0.4,0.4c0.1,0.2,0.3,0.1,0.5,0c0.6-0.3,1.2-0.2,1.8,0c-0.1,0.1-0.1,0.3-0.2,0.4c-0.3,0.2-0.6,0.5-0.8,0.4
		c-0.7-0.2-1.2,0.3-1.7,0.6c-0.3,0.2-0.6,0.4-0.9,0.4c-0.9,0.1-1.6,0.7-2.4,0.9c-0.5,0.1-1,0.1-1.5,0.2c-2,0.6-3.8,1.5-5.6,2.5
		c-0.2,0.1-0.5,0.2-0.7,0.2c-0.7-0.1-1.3,0.2-1.9,0.6c-0.2,0.1-0.4,0.2-0.6,0.2c-0.9,0-1.7,0.2-2.5,0.6c-0.9,0.5-2,0.4-3.1,0.3
		c-1.2-0.1-2.5-0.3-3.7,0.2c-0.3,0.1-0.5,0.4-0.9,0.4c-0.7,0.1-1.3-0.1-2,0.1c-0.4,0.1-0.9,0.1-1.4,0.2c-1.1,0.1-1.9-0.7-3-0.6
		c-0.8,0-1.5-0.6-2.3-0.5c-0.8,0.1-1.6,0.1-2.3-0.6c-0.2-0.2-0.6,0-0.6,0.2c-0.1,0.6-0.3,0.4-0.6,0.2c-0.2-0.1-0.3-0.2-0.6-0.2
		c-1-0.1-2-0.4-2.9-0.9c-0.6-0.3-1.2-0.5-1.8-0.6c-0.9-0.1-1.7-0.3-2.5-0.6c-0.9-0.3-1.6-0.9-2.4-1.2c-0.5-0.2-0.6-0.9-0.3-1.1
		c0.7-0.2,0.3-0.5,0-0.7c-0.5-0.3-1-0.6-1.5-0.9c-1.7-1.1-3.4-2.2-5-3.4c-1.5-1.1-3.1-2-4.7-3c-0.9-0.6-1.7-1.3-2.7-1.8
		c-1.6-0.8-3.4-1.3-4.8-2.6c-0.3-0.2-0.6-0.5-1-0.6c-1.4-0.4-2.2-1.7-3.5-2.3c-0.7-0.3-1.3-0.9-1.9-1.3c-1.3-1-2.4-2.2-3.4-3.3
		c-0.9-1-1.8-2-2.9-2.8c-1.2-0.8-2.6-1.6-3.9-2.3c-1.5-0.9-2.4-2.5-3.5-3.8c-1.1-1.4-2-2.9-3.1-4.2c-0.4-0.5-1-1-1.2-1.6
		c-0.7-1.8-1.5-3.5-1.9-5.3c-0.1-0.3-0.3-0.7,0-1c0.9-1,1.3-2.3,2.3-3.3c0.5-0.5,0.9-1.1,1.2-1.8c-0.4,0.1-0.6,0.2-0.9,0
		c-0.2-0.2-0.3,0-0.3,0.2c-0.2,0.9-1.1,1.4-1.4,2.2c-0.1,0.2-0.3,0.4-0.5,0.2c-0.2-0.2-0.1-0.4,0.1-0.6c0.3-0.3,0.5-0.7,0.7-1.1
		c0.3-0.7,0.6-1.4,1.1-1.9c0.3-0.3,0.6-0.5,0.7-1c0.1-0.9,0.6-1.5,1.2-2.2c0.2-0.2,0.1-0.5,0.3-0.7c0.1-0.1,0.2-0.3,0.1-0.5
		c0-0.1-0.2-0.1-0.2-0.1c-0.2,0.1-0.3,0.3-0.3,0.5c0,0.2-0.1,0.4-0.1,0.6c-0.6,0.3-0.9,0.7-1.1,1.3c-0.2,0.5-0.5,0.9-1,1.2
		c-0.8,0-0.9,0-0.5,0.8c-0.6,0.8-1.1,1.6-1.7,2.4c-0.2,0.3-0.4,1.1-0.5,1c-0.5-0.1-0.3-0.8-0.5-1.1c0,0,0-0.1,0-0.2
		c0-0.3,0-0.7,0.5-0.4c0.3,0.1,0.2-0.1,0.3-0.2c0.3-0.4-0.3-0.6-0.3-1c0.1-0.3,0.3-0.6,0.4-1c0.2-0.2,0.4-0.3,0.5-0.5
		c0.1-0.1,0.2-0.2,0.1-0.3c-0.1-0.1-0.2,0-0.3,0.1c-0.2,0.3-0.5,0.5-0.7,0.7c0,0,0,0,0,0c-0.1,0.2-0.3,0.3-0.4,0.5
		c-0.3-0.4-0.6-0.7-1.2-0.7c-0.2,0-0.6-0.1-0.3-0.7c0.2-0.4,0.6-0.5,0.9-0.8c0.1-0.1,0.2-0.1,0.2-0.3c0-0.2-0.2-0.1-0.3-0.1
		c-0.3-0.1-0.7-0.2-1-0.3c0-0.3,0.3-0.5,0.2-0.8c-0.1-0.4,0.1-0.6,0.4-0.8c0.1-0.3,0.3-0.3,0.6-0.2c0.4-0.1,0.4-0.1,0.3-0.2
		c-0.2-0.3-0.2-0.5,0.2-0.6c0.2-0.1,0.4-0.3,0.3-0.6c-0.2-0.8-0.2-0.9,0.7-0.8c0.3-0.1,0.5-0.1,0.6,0.2c0.1,0.4,0.3,0.2,0.5,0
		c0-0.7,0.5-1.5,0.9-1.6c0.6-0.1,1.2-0.4,1.7-0.7c0.7-0.5,1.4-1.2,1.8-2c0.1-0.2,0.1-0.3,0-0.4c-0.2-0.1-0.3,0-0.4,0.1
		c-0.7,0.5-1.4,1-2.1,1.4c-0.5,0.4-0.9,0.2-1-0.4c-0.1-0.5-0.3-0.3-0.6-0.2c-0.6,0.2-1.1,0.4-1.7,0.7c-0.3,0.1-0.5,0-0.6-0.3
		c-0.2-0.9-0.1-1.7-0.3-2.6c-0.1-0.7,0.3-1.4,0.2-2.1c-0.1-0.7,0.2-1.2,0.6-1.7c0.3-0.3,0.3-0.6,0.1-1c-0.1-0.4-0.4-0.6-0.7-0.8
		c-0.1-0.1-0.4-0.2-0.2-0.4c0.4-0.5,0.7-1.2,1.3-1.5c0.3-0.2,0.5-0.4,0.7-0.7c0.1-0.1,0.2-0.2,0.3-0.3c0.2-0.1,0.4-0.2,0.2-0.5
		c-0.2-0.3-0.4-0.1-0.5,0.1c-0.2,0.2-0.3,0.3-0.6,0.3c-0.5-0.1-0.9,0.1-1.2,0.4c-0.1,0.1-0.2,0.3-0.4,0.1c-0.1-0.1-0.1-0.4,0.1-0.5
		c0.2-0.1,0.3-0.2,0.3-0.4c-0.2-1.1,0.8-1.5,1.4-2.2c0.2-0.2,0.7,0.1,0.6-0.3c0-0.4-0.5-0.2-0.7-0.3c-0.1,0-0.2,0-0.3,0.1
		c-0.4,0.3-0.8,0.6-1.2,0.8C49,81.7,49,82,48.6,81.9c-0.4-0.6-0.3-0.9,0.4-1.3c0.3-0.1,0.4-0.2,0.2-0.6c-0.2-0.3-0.4-0.4-0.7-0.2
		c-0.6,0.3-0.8,0.9-0.8,1.5c-0.1,0.9-0.8,1.6-1.6,1.7c-0.5,0.1-0.8-0.2-0.7-0.6c0.2-0.8-0.1-1.6,0.2-2.4c0-0.1,0.1-0.3-0.1-0.4
		c-0.2-0.1-0.2,0-0.3,0.2C45.2,80,45,80.2,44.9,80c-0.4-0.5-0.9-0.6-1.4-0.7c-0.4-0.1-0.5-0.2-0.3-0.6c0.5-0.2,0.5-0.7,0.6-1.2
		c0.1-0.9,0.5-1.7,0.9-2.5c0.1-0.2,0.2-0.2,0.3-0.2c0.2,0,0.2,0.1,0.2,0.3c0,0.1,0.1,0.3,0.1,0.4c-0.1,0.1,0.5,0.3,0,0.3
		c-0.1,0-0.2,0-0.2,0.2c-0.2,0.4-0.3,0.9-0.3,1.3c0,0.2,0,0.4-0.1,0.6c-0.2,0.4-0.4,0.8,0.2,0.9c0.3,0.1,0.9,0.6,0.9-0.3
		c0-0.1,0.1-0.2,0.2-0.3c0.1-0.2,0.2-0.4-0.1-0.6c-0.3-0.1-0.5-0.4-0.4-0.7c0.1-0.4,0.5-0.2,0.7-0.2c0.3,0,0.4-0.1,0.3-0.3
		c-0.3-0.8,0.5-1.4,0.5-2.1c0-0.1,0.2-0.1,0.4-0.1c0.5,0.3,0.9,1.8,0.7,2.3c-0.3,0.5,0.1,0.7,0.4,0.8c0.3,0.2,0.3-0.2,0.3-0.4
		c0.1-0.4,0.3-0.4,0.6-0.2c0.4,0.4,0.7,0.2,0.8-0.2c0.2-0.4,0.5-0.4,0.8-0.4c0.8,0,1-0.2,1.1-1c0-0.5-0.1-1-0.2-1.4
		c-0.2-0.7-0.7-1-1.4-0.8c-0.3,0.1-0.3,0.1-0.5-0.1c-0.8-0.8-1.3-0.8-1.7-0.1C48,72.9,48,73,48,73.1c-0.1,0.1-0.2,0.4-0.4,0.3
		c-0.2-0.1-0.1-0.3-0.1-0.5c0.2-0.8,0.4-1.6,0.5-2.5c0-0.4,0-0.9,0.5-1.1c0.1-0.1,0.2-0.2,0.1-0.4c-0.2-0.4,0-0.8-0.1-1.2
		c0,0,0.1-0.1,0.1-0.1c0.9-0.3,0.9-0.4,0.2-1.1c-0.1-0.1-0.1-0.2-0.1-0.3c0.1-0.3,0.1-0.7,0.2-1c0.1-0.5,0.1-1.1,0.6-1.5
		c0.2-0.1,0.1-0.3,0.1-0.4c-0.2-0.3-0.4-0.5-0.6-0.5c-0.2,0-0.3,0-0.4,0.1c0,0-0.1,0-0.1,0c0,0,0,0,0.1,0c0.2-0.1,0.3-0.1,0.4-0.1
		c0,0,0.1,0,0.1,0c0,0,0.1,0,0.1,0c0.3-0.1,0.5-0.4,0.7-0.6c0.4-0.2,0.4,0.5,0.8,0.4c0.5-0.3,1-0.7,1.6-0.7c0.3-0.1,0.5-0.1,0.6,0.2
		c0.1,0.2,0.2,0.4,0.4,0.1c1-0.4,2.1-0.4,3.1-0.6c0.9-0.2,1.3-0.5,1.6-1.4c0-0.1,0.1-0.2,0.1-0.2c1.1-1.7,2.6-3,3.8-4.5
		c0.3-0.3,0.5-0.7,0.8-0.9c1-0.6,2-1.1,3.1-1.7c0.5-0.2,1.2-0.2,1.7-0.5c0.7-0.2,1.4-0.3,1.9-0.8c0.1,0,0.3-0.1,0.4-0.1
		c-0.3-0.1-0.6-0.2-0.9-0.4c-0.5,0.3-1,0.4-1.6,0.4c-0.1,0-0.2,0-0.4,0c-0.1,0-0.2,0-0.3,0c-1.9,0-3.5-1.6-3.5-3.5
		c0-0.4,0.1-0.8,0.2-1.1c0,0,0,0-0.1,0c-1.5-0.3-2.9-1.3-3.9-2.5c-0.5-0.6-1-1.3-1.4-1.9c-0.1-0.2-0.2-0.4-0.4-0.5
		c-0.5,0.1-0.9,0.2-1.4,0.2c-0.9,0-1.8-0.2-2.7-0.5c-0.7-0.2-1.4-0.5-2.2-0.7c-0.4-0.1-0.8-0.3-1.3-0.4c0,0,0,0,0,0
		c-0.2,0-0.5,0-0.7,0c-0.1,0.2-0.2,0.3-0.4,0.5c-0.7-0.1-1,0.5-1.3,0.9c-0.1,0.1-0.2,0.3-0.3,0.4c-0.4-0.1-0.5-0.5-0.5-0.9
		c0-0.7,0.3-1.2,0.9-1.6c0,0,0.1,0,0.1,0c-0.1-0.1-0.2-0.2-0.3-0.3c-0.2-0.2-0.3-0.3-0.4-0.5c-0.1,0-0.3,0.2-0.4,0.1
		c-0.7-0.1-0.8,0.4-0.9,0.8c-0.1,0.8-0.4,1.1-1.3,1.1c-0.2,0-0.3,0.1-0.2,0.3c0.1,0.2,0.1,0.3-0.1,0.3c-0.5,0.1-0.3,0.3-0.3,0.6
		c0,0.3,0,0.6,0,0.8c0-0.1,0.1-0.2,0.1-0.3c0.1-0.2,0.4-0.2,0.6,0c0.1,0.1,0.2,0.2,0.2,0.3c0,0,0,0,0-0.1c0-0.2,0.1-0.3,0.2-0.3
		c-0.2-0.3-0.1-0.7,0.3-0.6c0.4,0.1,0.8,0.3,1.1,0.6c0.1,0.2,0.2,0.6-0.1,0.7c-0.3,0.1-0.4,0.3-0.6,0.5c0,0.4,0.1,0.9-0.2,1.2
		c-0.5,0.6-1.3,0.2-1.9,0.1c-0.4-0.1-0.7-0.8-0.2-0.9c0.3,0,0.4-0.3,0.4-0.6c0-0.1-0.1-0.2,0-0.3c0,0.2-0.1,0.5-0.4,0.6
		c-0.3,0.2-0.5,0.4-0.2,0.8c0.2,0.3-0.1,0.4-0.4,0.5c-0.4-0.3-0.6,0.2-0.6,0.3c-0.2,0.4-0.5,0.7-0.8,1c-0.1,0-0.2,0-0.2,0
		c0,0,0,0,0,0c-0.5,0.6-0.8,1.3-1.3,2c-0.3,0.4-1.1-0.2-0.8-0.6c0.5-0.6,0.8-1.4,1.3-2c0.5-0.6,1-1.2,1.4-1.9c0.1-0.2,0.4-0.2,0.6,0
		c0.2-0.3,0.4-0.6,0.6-0.9c-0.3-0.3-0.7,0-1-0.3c0.3-0.5,0.5-1.1,1.1-1.3c0.2-0.2,0.1-0.5,0.3-0.6c0.1-0.1,0-0.3-0.1-0.4
		c-0.2-0.1-0.3,0-0.4,0.1c-0.1,0.1,0,0.3-0.2,0.4c-0.3,0.1-0.7,0.2-0.9,0.6c-0.2,0.5-0.5,0.6-1,0.3c-0.1,0.3,0,0.7-0.3,0.8
		c-0.4,0.2-0.8,0.4-0.7,0.8c0.2,0.5-0.2,0.9,0,1.3c0.2,0.4-0.6,1.5-1.1,1.3c-0.4-0.2-0.6-0.3-0.8,0.2c-0.1,0.1-0.3,0.2-0.4,0.1
		c-0.7-0.2-0.8,0.3-0.9,0.7c-0.1,0.3-0.3,0.5-0.3,0.7c-0.1,0.3-0.3,0.5-0.6,0.2c-0.2-0.2-0.4-0.2-0.5-0.1c-0.2,0.2-0.4,0.5-0.5,0.7
		c0,0.1,0.1,0.2,0.3,0.1c0.1-0.1,0.3-0.2,0.4-0.1c0.2,0.2,0,0.3-0.1,0.5c-0.2,0.5-0.8,0.9-0.9,1.3c-0.2,0.9-0.9,1.4-1.2,2.2
		c-0.2,0.6-0.5,1-0.8,1.6c-0.1,0.1-0.3,0.2-0.4,0.4c-0.1,0.1-0.1,0.3-0.3,0.3c-0.2,0-0.1-0.2-0.1-0.4c0-0.2,0-0.6-0.4-0.4
		c-0.2,0.2-0.4,0.3-0.6,0.5c-0.4,0.6-0.6,1.4-1.3,1.9c-0.1,0.1-0.1,0.3-0.2,0.5c-0.3,0.5-0.2,1.1-0.5,1.7c-0.6,0.2-1.3,0.6-1.4,1.3
		c-0.1,0.5-0.3,0.7-0.5,1.1c-0.4,0.5-1,0.8-0.4,1.5c0.1,0.6-0.3,0.9-0.7,1.2c-0.3,0-0.4,0.2-0.4,0.4c-0.2,0.1-0.3,0.2-0.4,0.3
		c0.1-0.2,0-0.4-0.2-0.6c-0.1-0.2-0.3-0.1-0.4,0c-0.3,0.2-0.6,0.4-0.9,0.6c-0.8,0-0.1,0.6-0.4,0.8c-0.4,0.2-0.2,0.6-0.3,0.9
		c-0.1,0.4-0.4,0.8,0.3,1c0.2,0,0.2,0.3,0.1,0.4c-0.2,0.2-0.3,0.4-0.6,0.4c-0.6,0.2-0.8,0.6-0.6,1.2c0.1,0.3,0.1,0.6,0,0.8
		c-0.5,1.1-0.8,2.3-1.2,3.5c-0.1,0.3-0.2,0.5-0.6,0.6c-0.3,0-0.5,0.2-0.5,0.6c-0.2,1.1,0,2.3-0.8,3.3c-0.2,0.2-0.3,0.7,0.3,0.8
		c0.2,0,0.4,0.2,0.3,0.3c-0.7,0.5-0.3,1.1-0.1,1.6c0,0.5-0.1,1-0.1,1.5c0,0.2-0.1,0.3-0.2,0.4c-0.2,0.1-0.3-0.1-0.4-0.2
		c-0.4-0.3-0.2-0.8-0.4-1.2c0-0.5-0.2-1,0.1-1.4c0.1-0.1,0.2-0.3-0.1-0.4c-0.2,0-0.2,0.2-0.3,0.3c-0.2,0.3,0,0.8-0.3,1.1
		c0,0.6-0.3,1.2-0.3,1.8c-0.1,0.2-0.1,0.3-0.2,0.5c0,0,0,0,0,0c0-0.2-0.1-0.3-0.3-0.4c-0.2-0.2-0.1-0.4-0.1-0.6c0-0.2,0-0.4-0.3-0.5
		c-0.3,0-0.3,0.2-0.3,0.3c-0.5,0.9-0.4,1.8,0.4,2.5c0.2,0.1,0.3,0,0.4-0.1c0,0.2,0,0.4,0.1,0.6c0,0.1,0.1,0.1,0.1,0.1
		c0.1,0.2,0.4,0.4,0.3,0.6c-0.4,0.6,0,1.1,0.2,1.5c0-1.1,0.1-2.2,0.4-3.3c0.1-0.6,1,0,0.8,0.4c-0.3,1.3-0.3,2.7-0.3,4
		c0,0.6-0.9,0.3-0.9-0.2c0,0,0-0.1,0-0.1c-0.3,0.1-0.5,0.1-0.7,0.2c0.5,0.6,0.3,1.3,0.4,2c0.1,0.3,0,0.4,0.4,0.3
		c0.6-0.2,0.6,0.2,0.6,0.6c0,0.5,0,1.1,0.1,1.6c0.1,0.5,0.1,1.1,0.3,1.6c0.2,0.7,0,1.7,0.8,2.2c0.2,0.2,0.5,0.1,0.7,0
		c0.2,0,0.3,0,0.5,0.1c0.4,0.3,0.2,0.7,0.2,1c0,0-0.1,0-0.1,0.1c0,0,0,0,0,0c-0.2-0.3-0.5-0.4-0.8-0.2c-0.1,0-0.1,0.1-0.2,0.1
		c-0.3,0.4-0.4,0.8-0.1,1.2c0.2,0.1,0.4,0.1,0.6,0c0,0.1,0,0.3,0,0.4c-0.1,0.7,0.5,0.3,0.7,0.4c0.1,0.3,0.2,0.5,0.3,0.8
		c0.1,0.2,0,0.3-0.2,0.4c-0.3,0.1-0.2-0.1-0.3-0.2c-0.2-0.6-0.7-0.7-1.1-0.8c-0.3-0.1-0.4,0.1-0.3,0.3c0.2,0.5,0.1,1.1,0.4,1.5
		c0.1,0.1,0.3,0.2,0.4,0.3c-0.2-0.1-0.3,0-0.4,0.2c0.2,0.8,0.4,1.6,0.3,2.4c0,0.1,0,0.2,0.1,0.3c0.4,0.8,0.4,1.7,0.6,2.6
		c0.3,1.1,0,2.4,0.7,3.4c0.1,0.1,0.1,0.2,0.1,0.3c-0.1,0.5,0.2,0.9,0.5,1.3c0.2,0.2,0.3,0.4,0.2,0.7c0.1,0.2,0.1,0.5,0,0.7
		c0,0.2,0,0.4,0.2,0.6c0.1,0.3,0.6,0.3,0.7,0.7c-0.1,0.2-0.3,0.3-0.5,0.4c-0.4,0.2-1.1,0.4-1.2,0.7c-0.2,0.4,0.5,0.8,0.7,1.3
		c0,0,0,0,0,0.1c0.3,0.2,0.4,0.8,0.9,0.3c0.2-0.2,0.3,0.1,0.4,0.2c0.1,0.1,0.2,0.2,0.2,0.4c0-0.1-0.1-0.2-0.2-0.4
		c0.1,0.4,0.4,0.9-0.5,0.6c-0.3-0.1-0.6,0-0.3,0.5c0.2,0.3,0.3,0.7,0.4,1c-0.4,0.4-0.3,0.7,0,1.1c0.3,0.5,0.8,0.9,1.2,1.3
		c0.1,0.1,0.2,0.1,0.2,0.2c-0.1,0.2-0.2,0.1-0.3,0.1c-0.2-0.1-0.3-0.1-0.5-0.2c-0.4,0-0.6,0.2-0.5,0.5c0.2,0.4,0.8,0.8,1.2,0.7
		c0.7-0.2,0.9,0.1,1,0.6c-0.3,0-0.7-0.3-1,0.2c-0.2,0.2-0.4,0.1-0.5,0c-0.1-0.1-0.2-0.2-0.4-0.1c-0.2,0.1,0,0.3,0.1,0.4
		c0.3,0.6,0.9,0.3,1.3,0.3c0,0.2,0.1,0.3,0.3,0.2c0.2-0.1,0.3-0.2,0.5-0.2c0.3,0.4,0.3,0.6-0.2,0.7c-0.2,0-0.3,0.1-0.3,0.1
		c0.1,0,0.1,0.1,0.1,0.1c0.2,0.5,0.3,1.1,0.5,1.6c0.1,0.2,0,0.2-0.2,0.3c0.5,0.6,1,1.2,1.5,1.9c0.2,0.3-0.7,0.5-0.8,0.2
		c-0.7-1-1.5-1.9-2.2-2.8c-0.1,0-0.3,0.1-0.4,0.1c0,0-0.1,0-0.1,0c-0.4-0.7-1.1-1.1-1.3-1.9c-0.2-0.8-0.5-1.5-0.8-2.3
		c-0.5-1.1-0.8-2.3-1-3.4c-0.2-1.4-0.8-2.6-1-4c0-0.4-0.2-0.7,0-1.1c0.2-0.3,0.1-0.6,0.1-0.8c0.1-0.4,0-0.8-0.4-1
		c-0.2-0.2,0-0.5,0-0.7c0,0,0.1-0.1,0.1-0.1c0.1-0.1,0.2-0.1,0.3-0.2c0.2-0.2,0.3-0.4,0.1-0.6c-0.2-0.3-0.3,0.1-0.5,0.1
		c-0.4,0.1-0.6,0.4-0.9,0.5c-0.2-0.4-0.4-0.9-0.2-1.3c0.3-0.7,0.2-1.5,0.4-2.3c0.2-0.9,0-1.8-0.3-2.7c0.1-0.5-0.2-1,0.2-1.5
		c0.1-0.1,0-0.5-0.3-0.3c-0.5,0.3-0.4-0.2-0.5-0.3c0.1-0.6-0.1-1.2-0.2-1.7c0-0.2-0.3-0.4,0-0.5c-0.6-0.3-0.7-0.2-0.8,0.5
		c-0.2,0.8-0.7,0.7-1.4,0.5c0.1,0.2,0.1,0.2,0.1,0.3c0.5,0.5,1,0.9,0.6,1.7c0,0.1,0,0.2,0.1,0.2c0.8,0.4,0.5,1.1,0.5,1.8
		c0,0.1-0.1,0.1-0.1,0.2c0,0.1,0,0.2,0,0.3c0-0.1-0.1-0.2-0.1-0.3c-0.1-0.1-0.1-0.1-0.2-0.2c-0.3-0.1-0.3-0.1-0.4,0.5
		c-0.1,0.3-0.3,0.6-0.3,1c-0.1,0.2-0.2,0.4-0.1,0.7c0.2,0.4-0.2,0.2-0.3,0.3c-0.2,0.1-0.7,0-0.7,0.4c0,0.4-0.2,0.9,0.4,1.2
		c0.7,0.4,0.7,1.3,0,1.8c-0.3,0.2-0.2,0.2-0.1,0.5c0.2,0.4,0.6,0.7,0.5,1.2c-0.1,0.3-0.2,0.5,0.2,0.6c0.3,0,0.3-0.3,0.3-0.6
		c0-0.4-0.1-0.9,0.1-1.3c0.4-0.9,0.4-1.7,0.2-2.6c-0.1-0.4,0-0.7,0.2-1.1c0.1-0.2,0.1-0.4,0.3-0.3c0.2,0,0.1,0.3,0.1,0.4
		c0,1.1,0,2.2,0,3.3c0,0.2-0.1,0.4,0.2,0.4c0.2,0,0.4-0.1,0.4-0.3c0-0.1,0-0.3,0.1-0.4c0-0.2,0.1-0.4,0.2-0.6c0,0,0,0,0,0
		c0,0,0,0,0,0c0.3,0.6,0,1.4,0.8,1.7c0,0.1-0.1,0.2-0.1,0.3c0,0.2,0,0.3,0,0.5c0.3,0.7,0.2,1.6,0.6,2.3c0.1,0.2,0.1,0.5-0.1,0.7
		c-0.3,0.2-0.1,0.5,0,0.7c0.5,0.7,0.8,1.4,1,2.2c0.2,0.7-0.3,0.7-0.6,0.8c-0.4,0.1-0.7,0-0.6-0.5c0-0.1-0.1-0.2-0.1-0.3
		c0-0.2-0.1-0.4,0.2-0.6c0.2-0.1,0.3-0.4,0.1-0.5c-0.5-0.2-0.5-0.7-0.8-1c-0.2-0.2-0.2-0.5-0.5-0.6c-0.5-0.4-0.5,0.1-0.7,0.3
		c0,0.2,0,0.3,0,0.5c0.2,0.5,0.1,1,0.1,1.5c0,0.3-0.2,0.7-0.5,0.8c-0.3,0.1-0.3-0.3-0.4-0.5c-0.2-0.2-0.3-0.6-0.8-0.4
		c-0.5,0.3-1.1,1.1-0.9,1.7c0.2,0.7,0.2,1.5,0.8,2c0.2,0.2,0.2,0.3,0.1,0.5c-0.2,0.4-0.4,0.8-0.2,1.4c0.2,0.8,0.3,1.8,0.3,2.6
		c0,0.2-0.1,0.4-0.3,0.4c-0.3,0.1-0.3-0.2-0.3-0.3c0-0.1,0-0.3,0-0.4c-0.3-1.1-0.3-2.2-1-3.2c0-0.8,0-1.7-0.6-2.3
		c0.2-0.5,0.7-0.9,0.1-1.4c-0.1,0-0.1-0.2,0-0.3c0.5-0.8-0.1-1.6,0-2.4c0.1-0.9-0.1-1.9,0.1-2.8c0.1-0.3-0.1-0.7-0.1-1
		c0-0.1-0.1-0.2-0.3-0.2c-0.1,0-0.2,0.1-0.2,0.2c0,0.7-0.2,1.4-0.1,2.1c0.1,0.8,0.2,1.5,0.2,2.3c0,0.5-0.4,0.8-0.8,0.6
		c-0.4-0.2-0.4,0-0.4,0.3c0,0.4-0.1,0.9,0.1,1.3c0.2,0.5-0.6,0.5-0.4,0.9c0.2,0.4,0.8,0.3,0.8,0.8c0,0.1,0.1,0.1,0.1,0.2
		c0,0,0,0,0,0c0.1,0.2,0.3,0.2,0.5,0c0.1-0.1,0.3-0.1,0.3,0c-0.1,0.6,0.6,0.9,0.5,1.5c0,0,0,0-0.1,0c-0.2,0.2-0.4,0.5-0.8,0.5
		c-0.2,0-0.3,0.2-0.4,0.4c0,0,0,0.1-0.1,0.1c-0.2-0.1-0.4-0.2-0.5-0.3c0-0.1,0-0.2,0-0.3c-0.1-0.3-0.2-0.7-0.3-1
		c-0.2-0.4,0-0.9-0.5-1.2c-0.1,0-0.1,0-0.2,0c-0.2-0.3-0.2-0.6,0.1-0.9c0.1-0.1,0.2-0.3,0-0.4c-0.4-0.3-0.2-0.5,0-0.8
		c0.1-0.3,0.2-0.8-0.1-0.9c-0.4-0.3-0.5,0.2-0.7,0.4c-0.1,0.1-0.3,0.3-0.4,0.5c-0.2,0.5-0.1,0.9,0.4,1.1c0.1,0.1,0.2,0.2,0.3,0.3
		c-0.1,0-0.1,0-0.2,0c0,0,0,0,0,0c-0.2-0.1-0.5-0.3-0.6-0.5c0.1-0.1,0-0.2-0.1-0.4c-0.8,0-0.8,0.1-0.6,0.6h0c0.1,0.7,0.4,1.3,0.1,2
		c-0.5,0.2-0.6,0.2-0.5-0.4c0-0.2,0-0.3-0.2-0.4c-0.2,0-0.2,0.1-0.2,0.3c0,0.1,0,0.3,0,0.4c0,0.3-0.2,0.4-0.4,0.2
		c-0.1-0.1-0.3-0.3-0.4-0.4c-0.2-0.2-0.6-0.1-0.5,0.1c0.1,0.6-0.3,1.2,0,1.6c0.3,0.5,0.2,1,0.2,1.4c0,0.3,0.1,0.4,0.3,0.5
		c0.1-0.4,0.9,0.1,0.8-0.5c-0.1-0.5-0.1-1,0.4-1.3c0.3-0.2-0.1-0.8,0.3-0.8c0.3,0,0,0.6,0.3,0.8c0.2,0.3,0.9,0.4,0.1,0.9
		c0,0,0,0.2,0,0.3c-0.4,0.3-0.3,1-0.8,1.2c-0.5,0.2-0.3,0.4,0,0.7c0.3,0,0.3,0.4,0.4,0.6c0,0.4,0.4,0.6,0.3,1c0,0.1,0,0.2,0.1,0.3
		c0.2,0.1,0.2-0.1,0.2-0.2c0.2-0.3,0.3-0.2,0.4,0.1c0.1,0.4,0.3,0.8,0.3,1.2c-0.1,1-0.1,1.1,0.8,1.6c0.2,0.1,0.2,0.2,0.1,0.4
		c-0.3,0.7-0.2,0.8,0.5,0.7c0.2,0,0.4-0.1,0.6,0.1c-0.4,0.3-0.3,0.8-0.3,1.2c0,0.2-0.1,0.3-0.3,0.5c-0.2,0.1-0.2,0-0.3-0.1
		c-0.4-0.4-1.2-0.2-1.3,0.3c-0.1,0.7-0.1,1.4,0.3,2c0.1,0.1,0.3,0.3,0.4,0.1c0.2-0.4,0.7-0.5,0.6-1.1c0-0.4,0.4-0.7,0.8-0.4
		c0.4,0.3,0.5,0.9,0.1,1.2c-0.2,0.2-0.5,0.3-0.6,0.5c-0.1,0.3-0.3,0.5-0.6,0.3c-0.1,0-0.2,0-0.2,0.1c0.1,0.3,0.6,0.5,0.2,0.8
		c-0.5,0.3-0.2,0.5,0,0.8c0.3,0.3,0.5,0.7,0.8,1c0.3,0.1,0.4,0,0.7-0.2c0.3-0.2,0.6-0.1,0.7,0.2c0,0.2,0.1,0.3,0.2,0.4
		c0.7,1.4,1.8,2.4,3,3.4c0.3,0.7,0.4,1.3,0.4,2.1c0,0.8,0.3,1.4,1,1.8c0.6,0.3,0.6,0.6-0.1,0.9c-0.5,0.2-0.7,0.6-0.4,1
		c0.4,0.5,0.6,1,0.9,1.5c0,0.1,0,0.2,0,0.3c0,0.3,0.1,0.4,0.4,0.4c0.2,0.1,0.1,0.3,0.2,0.4c0,0.4,0.1,0.5,0.5,0.7
		c0.4,0.1,0.8,0.2,1.1,0.6c-0.4,0.2-0.5,0.5-0.7,0.9c0,0.1,0,0.2,0.1,0.4c0.2,0.9,0.8,1.5,1.5,2c0.1,0.1,0.2,0.2,0.4,0.2
		c0.1,0.4,0.1,0.7,0.1,1.1c0,0,0.1,0.1,0.1,0.1c0.3,0.3,0.5,0.7,0.8,1c0.3,0.2,0.6,0,0.8-0.1c0.2-0.1,0.2-0.3,0.1-0.4
		c-0.2-0.3-0.4-0.2-0.6,0c-0.2,0.1-0.4,0-0.5-0.2c0-0.1-0.1-0.2-0.1-0.3c0.4,0,0.5-0.2,0.3-0.5c-0.1-0.2-0.2-0.3-0.4-0.5
		c0,0,0,0,0,0c0.1,0,0.1,0,0.2,0.1c0.2,0.1,0.4,0.2,0.4,0.4c0.1,0.6,0.5,0.7,1,0.8c0.2,0,0.4,0.1,0.4,0.2c0.3,0.7,1.1,1,1.5,1.6
		c0.4,0.6,0.8,0.7,1.5,0.3c0.6-0.3,0.8-0.6,0.6-1.3c-0.1-0.1-0.1-0.1-0.2-0.2c0.2,0.2,0.4,0.2,0.6,0.2c0,0,0.1,0,0.1,0
		c0.4,0.1,0.9-0.1,1.3,0.1c0.2-0.1,0.2-0.2,0.1-0.4c0-0.1-0.1-0.2,0-0.2c0,0,0.1,0,0.1,0.1c0.3,0.2,0.6,0.4,0.9,0
		c0.1-0.2,0-0.3,0-0.4c0.2,0.2,0.2,0.6,0.5,0.7c0.6,0.1,1.1,0.3,1.5,0.8c-0.5,0.3-1.4,0-1.4,0.9c-0.3-0.4-0.5-0.2-0.6,0.2
		c0,0.1-0.1,0.1-0.1,0.2c-0.3,0-0.7-0.4-0.8,0.1c-0.1,0.4,0.3,0.5,0.6,0.5c0.1,0,0.2,0.1,0.3,0.2c0.1,0.1,0.2,0.1,0.3-0.1
		c0-0.1-0.1-0.2-0.2-0.2c0,0-0.1,0-0.1-0.1c0,0,0.1,0.1,0.1,0.1c-0.2-0.6,0.4-0.5,0.6-0.7c0,0.3,0.1,0.6,0.3,0.8
		c0.4,0.5,0.5,1.1,0.1,1.7c-0.3,0.4-0.2,0.7,0.1,1c0.3,0.3,0.6,0.5,0.9,0.8c0.7,0.5,1.6,0.6,2.2,1.2c0.4,0.4,0.8,0.1,1-0.5
		c-0.1,0.4,0.1,0.6,0.3,0.8c0.5,0.4,1,0.8,1,1.5c0,0.2,0.2,0.3,0.3,0.4c1.4,0.6,1.9,2.2,3.3,2.8c0.3,0.1,0.3,0.4,0,0.6
		c-0.3,0.2-0.4,0.6-0.1,0.8c0.7,0.6,1.3,1.5,2.3,1.6c0.3,0,0.4,0.2,0.5,0.4c0.2,0.5,0.6,0.9,1.1,1.1c0.3,0.1,0.4,0.3,0.5,0.6
		c0.1,0.4,1.2,1.4,1.5,1.3c0.5-0.1,0.9,0.1,1.4,0.3c0.4,0,0.7,0.3,1.1,0.4c0.5,0.8,1.2,1.2,1.9,1.7c0.1,0.1,0.3,0,0.4,0
		c-0.5-0.2-0.9-0.6-1.3-1c-0.2-0.3-0.5-0.7-0.4-1.1c0-0.1,0.1-0.2,0.1-0.2c0-0.1,0-0.2,0-0.3c0,0,0,0,0,0c-0.4-0.3-0.8-0.6-1.1-1
		c-0.1-0.2-0.2-0.5,0-0.6c0.2-0.2,0.5,0,0.6,0.1c0.1,0.1,0.1,0.1,0.2,0.2c0,0,0-0.1-0.1-0.1c0.1,0,0.1-0.1,0.1-0.1
		c0-0.1,0-0.1,0-0.1c0.1,0,0.3,0,0.4,0c-0.1-0.1-0.2-0.2-0.2-0.3c-0.1-0.4-0.3-0.7-0.6-1c-0.2-0.1-0.3-0.4-0.2-0.6
		c0.1-0.2,0.3-0.2,0.4-0.1c0.1,0,0.1-0.1,0.2-0.1c0,0,0,0,0,0c-0.3-0.2-0.5-0.5-0.9-0.6c-0.5-0.1-0.9-0.1-1.3-0.5
		c-0.2-0.2-0.4-0.6,0-0.8c0.1,0,0.1-0.1,0.1-0.1c-0.1-0.1-0.2-0.3-0.4-0.4c-0.2-0.2-0.4-0.3-0.7-0.4c-0.1-0.1-0.2-0.1-0.3-0.1
		c0,0-0.1,0-0.1,0c0,0,0,0,0,0c0,0,0,0,0,0c-0.3,0-0.5-0.2-0.5-0.4c0-0.1,0-0.2,0-0.3c-0.4,0.1-0.8,0.3-1.1,0.4
		c-0.2,0.1-0.3,0.3-0.3,0.5c0.1,0.1,0.2,0.2,0.2,0.2c0.1,0.1,0.1,0.1,0.2,0.2c0.1,0.1,0.2,0.1,0.2,0.2c0.2,0.2,0.4,0.4,0.7,0.5
		c0.2,0.1,0.4,0.3,0.4,0.5c0,0.2-0.2,0.4-0.4,0.3c-0.5-0.1-0.8-0.4-1.1-0.7c-0.4,0-0.8-0.1-1.1-0.3c-0.2-0.2-0.5-0.5-0.8-0.5
		c-0.4,0-0.7,0-1-0.2c-0.4-0.2-0.4-0.7-0.4-1.1c-0.3-0.3-0.5-0.6-0.8-0.9c-0.2-0.3-0.4-0.6-0.5-1c0,0,0,0,0-0.1
		c-0.3,0.1-0.7-0.2-0.7-0.5c0-0.7,0-1.4-0.4-2c-0.1-0.2-0.2-0.5,0-0.6c0.2-0.2,0.5,0,0.6,0.1c0.1,0.2,0.2,0.3,0.3,0.5
		c0,0,0.1-0.1,0.1-0.1c0.3-0.2,0.5,0,0.6,0.3c0.1,0.2,0.1,0.3,0.2,0.4c-0.1,0.3,0,0.3,0.2,0.3c0.1,0.1,0.1,0.2,0.2,0.3
		c0.2,0.2,0.5,0.1,0.7,0.3c0.3,0.2,0.8,0.2,1.1,0.2c0.1,0.1,0.1,0.2,0,0.4c-0.3-0.1-0.6,0-0.9-0.2c-0.2-0.1-0.3-0.3-0.5-0.2
		c0,0-0.1,0.1-0.1,0.2c0.1,0.2,0.3,0.3,0.6,0.3c0.3,0.1,0.7,0,1,0.3c0,0.2-0.1,0.5,0.2,0.5c0.2,0,0.1-0.3,0.2-0.3
		c0.2-0.1,0.3-0.4,0.5-0.5c0,0,0.1,0.1,0.1,0.1c0.1,0.6,0.3,0.9,1,0.8c0.2,0,0.4,0.1,0.6,0.2c0.4,0.4,0.9,0.7,1.4,1
		c0.3,0.1,0.5,0.2,0.7,0.4c0,0,0,0,0,0c0.1,0.1,0.2,0.1,0.2,0.2c0,0,0,0,0,0c0,0,0,0,0,0c0.1,0.1,0.3,0.2,0.4,0.4
		c0.7,0.4,1.5,0.6,2.3,0.9c1.2,0.4,1.7,1.1,1.2,2.3c-0.1,0.3-0.2,0.5,0,0.7c0.3,0.4,0.7,0.8,1.2,0.9c0.4,0.1,0.9,0.1,1.1,0.5
		c0.3,0.6,0.7,0.5,1.2,0.5c0,0,0.1-0.1,0.1-0.1c0.3,0.4,0.7,0.4,1,0.1c0,0,0,0,0,0c0.3,0.2,0.3,0.7,0.7,0.8c0.2,0.1,0.5,0.1,0.6,0.3
		c-0.1,0-0.2,0-0.2,0c-0.2,0-0.5,0-0.4,0.2c0,0.4,0.3,0.6,0.7,0.7c0.3,0.1,0.6,0.3,0.8,0c0,0,0.1,0,0.1,0c0.2,0.1,0.4,0.3,0.6,0.3
		c0.6,0,1.2,0.2,1.8,0.2c0.4,0,0.8,0,1.1,0.1c0.2,0,0.3-0.1,0.5-0.1c0.1,0.1,0.2,0.1,0.2,0.2c0.1,0.1,0.2,0.2,0.1,0.3
		c-0.1,0.2-0.2,0-0.4,0c-0.6-0.2-0.9,0.2-1.2,0.5c-0.2,0.1-0.4,0-0.7,0c-0.2,0-0.3-0.4-0.5-0.2c-0.2,0.2,0.1,0.4,0.1,0.6
		c-0.2,0-0.4,0-0.6-0.2c-0.5-0.4-1.1-0.8-1.7-1.2c-0.1-0.1-0.3-0.1-0.4,0c-0.1,0.2-0.1,0.5,0.1,0.7c0.4,0.3,1,0.4,1.4,0.8
		c0.1,0,0.2,0,0.3,0.1c0.3,0,0.6,0.1,0.8-0.1c0.2,0.2,0.3,0.6,0.6,0.1c0.2-0.2,0.4-0.3,0.6-0.5c0.6,0.2,0.7-0.4,1.1-0.5
		c0.2,0,0.4,0,0.6,0c0.4,0.1,0.5-0.1,0.5-0.4c0-0.3-0.1-0.5-0.3-0.7c0,0,0.1,0,0.1,0c0.2,0,0.3,0,0.5-0.1c0.1,0.1,0.1,0.2-0.1,0.4
		c-0.1,0.1,0.2,0.1,0.3,0.1c0,0.1,0,0.1,0.1,0.1c0.5-0.1,0.9,0.6,1.5,0.2c0.1-0.1,0.2-0.1,0.2-0.2c-0.4-0.3-1,0.1-1.3-0.4
		c0-0.2-0.3-0.3-0.4-0.4c0.1,0,0.2-0.1,0.3,0c0.9,0.3,1.7,0.6,2.6,0.5c0.6-0.1,1,0.5,1.6,0.6c0.1,0,0.1,0.1,0.1,0.2
		c0,0.9,0.6,1.1,1.3,1.4c0.1,0,0.2,0,0.2,0c0,0,0,0,0,0c-0.4,0.4,0,0.5,0.3,0.7c0.1,0,0.1,0,0.2,0.1c0,0.1,0,0.2,0.1,0.3
		c0.3,0.4,0.9,0.6,1.3,0.8c0.1,0,0.3,0,0.4,0.1c0.1,0.2,0.1,0.3,0.2,0.5c0,0.1-0.1,0.2-0.1,0.4c0.4,0.9,1.2,1.3,2,1.7
		c0.1,0,0.2,0,0.2,0.1c0,0.1,0.1,0.3,0.2,0.4c0.2,0.3,0.4,0.5,0.8,0.5c0.4,0,0.7,0.1,1,0.3c0.2,0.1,0.5,0.3,0.7,0.5
		c0.1,0.1,0.4,0.2,0.4,0.5c-0.1,0-0.2,0-0.2,0c-0.3,0-0.5-0.1-0.8-0.1c-0.3,0-0.6,0.2-0.7,0.5c-0.1,0.3-0.1,0.7,0.2,0.8
		c0.4,0.2,0.6,0.6,1,0.8c0.6,0.4,1.3,0.7,2.1,0.5c0.2,0.1,0.4,0.2,0.6,0.2c0.1,0.2,0.3,0.3,0.5,0.2c0.2-0.1,0.3-0.4,0.4-0.6
		c0.1-0.2,0-0.4-0.1-0.5c-0.2-0.6-0.1-0.7,0.5-0.7c0.3,0,0.7,0,1,0.1c0.2,0,0.4,0,0.6-0.1c0.4-0.3,0.6-0.1,0.8,0.2
		c0.2,0.1,0.4,0,0.6,0c0.6,0,1.2-0.4,1.8-0.4c0.3,0,0.4,0.4,0.7,0.3c0.9-0.3,1.8,0.1,2.7,0c0.4,0.2,0.7-0.1,1.1,0c0.1,0,0.1,0,0.2,0
		c0,0.2,0,0.4,0.2,0.5c0.2,0.1,0.4,0.2,0.6,0c0.2-0.2,0.5-0.3,0.7-0.2c0.2-0.2,0.2-0.3-0.1-0.4c-0.1,0-0.3,0-0.4-0.1
		c0.5-0.1,1.1-0.2,1.5,0.1c-0.1,0-0.2,0.2-0.2,0.5c0.3,0.3,0.6,0.2,1,0.1c0,0,0.1,0,0.1,0c0.1,0,0.3,0,0.4,0c0,0,0,0,0.1,0
		c0.5,0.2,1.1,0.2,1.3-0.1c0.2-0.3,0.4-0.5,0.6-0.7c0.3,0,0.6,0,0.8,0c0.4-0.1,0.8,0.1,1.2-0.2c0.5-0.4,0.8-0.3,1.1,0.2
		c0.2,0.3,0.4,0.4,0.6,0.1c0.3-0.4,0.6-0.3,1-0.2c1,0.1,2,0.2,3,0.2c0.2,0,0.5,0,0.5-0.3c0-0.3-0.3-0.3-0.6-0.4
		c-0.5,0-1,0.1-1.5-0.1c-0.3-0.1-0.7-0.3-0.6-0.6c0-0.3,0.4-0.3,0.7-0.3c0.2,0,0.5-0.1,0.7-0.1c0.7-0.1,1.6,0.1,2.2-0.1
		c0.7-0.3,1.6,0,2.1-0.7c0,0,0.2,0,0.3,0c0.5,0.3,0.9,0.1,1.4-0.1c0.5,0.1,1,0.1,1.5,0.4c-0.1,0.1-0.2,0.2-0.2,0.2
		c-1,0.2-1.7,1-2.7,1.1c-0.3,0-0.2,0.3-0.3,0.4c-0.2,0.2-0.5,0.4-0.8,0.2c-0.6-0.1-1.3-0.3-1.7,0.6c-0.2,0.2-0.2,0.4,0,0.6
		c0.2,0.1,0.5,0,0.7-0.2c0.9-0.6,1.7-0.7,2.6,0.1c0.4,0.4,0.9,0.3,1.2-0.1c0.4-0.6,1.1-0.6,1.6-0.4c0.9,0.2,1.6-0.2,2.3-0.5
		c0.2-0.1,0.3-0.2,0.3-0.4c-0.1-0.2-0.2-0.4-0.5-0.3c-0.3,0-0.5-0.1-0.7-0.2c-0.1-0.1-0.3-0.2-0.4-0.2c-0.1-0.1,0-0.1,0-0.1
		c0,0,0.1-0.1,0.1-0.1c0.2,0.1,0.2-0.2,0.3-0.2c0.1-0.1,0.2-0.1,0.3-0.2c0.3,0,0.5-0.1,0.7-0.3c0.5-0.1,0.2-0.6,0.3-0.8
		c0,0,0.1-0.1,0.1-0.1c0.2-0.1,0.3-0.1,0.5-0.2c0.1,0.1-0.2,0.5,0.2,0.5c0.3,0,0.3-0.2,0.3-0.4c0-0.3,0.3-0.2,0.4-0.4
		c0.2-0.1,0.4-0.3,0.6,0c0.2,0.3,0.5,0.2,0.7,0.1c0.5-0.3,1.2-0.3,1.5-0.8c0.8,0,1.5-0.3,2.2-0.5c0.8-0.1,1.6-0.4,2.3-0.8
		c0.2-0.2,0.2-0.5,0.3-0.7c0.1-0.2,0.3-0.3,0.6-0.4c0.1,0,0.4-0.1,0.3-0.3c0-0.2-0.2-0.2-0.4-0.2c-0.6-0.1-2.2,0.7-2.4,1.2
		c-0.1,0.3-0.2,0.5-0.5,0.5c-0.4,0.1-0.1-0.4-0.4-0.5c-0.3-0.1-0.5,0-0.8,0.2c-0.3,0.2-0.5,0.1-0.8,0c-0.2-0.1-0.3-0.3,0-0.5
		c0.7-0.3,1.4-0.5,2.1-0.9c0.9-0.5,1.9-0.8,2.7-1.4c0.2-0.1,0.5-0.2,0.7,0.1c-0.4,0.6-0.3,0.7,0.5,1.1c0.2-0.1,0.4,0.2,0.6,0
		c0.3-0.4,0.7-0.5,1.1-0.7c0.5-0.4,1.2-0.4,1.3-1.2c-0.1-0.3-0.3-0.3-0.5-0.4c-0.1,0.1-0.2,0.1-0.4,0c0.1,0,0.3,0,0.4,0
		c0.2-0.1,0.4-0.4,0.6-0.5c0.6-0.2,1.1-0.6,1.8-0.8c0.4-0.1,0.9-0.2,1.4-0.5c0.8-0.5,1.4-1.3,2.2-1.8c0.5-0.3,0.8-0.8,1.5-0.7
		c0.2,0,0.2-0.2,0.3-0.3c0.5-0.8,1.4-1.1,2.2-1.6c0.2-0.1,0.5-0.2,0.6,0.1c0.1,0.7,0.4,0.3,0.6,0.1c0.3-0.5,1-0.7,1.3-1.3
		c0.6-0.4,1.3-0.7,1.9-1c0.7-0.3,1.3-0.7,1.9-1c0.6-0.3,1.1-0.9,1.9-1.1c0.4-0.1,0.5-0.4,0.6-0.7c0.2-0.1,0.5-0.1,0.7,0
		c0.2,0,0.4,0,0.5-0.3c0,0,0.1-0.1,0.1-0.1c0.2-0.1,0.4,0,0.7-0.1c0.8,0,1.1-0.3,1.2-0.9c0-0.3,0.1-0.3,0.3-0.3
		c0.6,0,1.3-0.5,1.3-0.9c0-0.6,0.4-0.7,0.6-1.1c0.4-0.8,0.9-1.5,1.7-2.1c0.4-0.3,0.9-0.2,1.2-0.7c0,0,0,0,0,0c0.1,0,0.1-0.1,0.2-0.2
		c0-0.2-0.1-0.4-0.1-0.5c0-0.1,0.1-0.1,0.1-0.2c0,0,0.1,0,0.2,0c0.7,0,0.9-0.5,1.3-0.9c0,0,0.1-0.1,0.1-0.1c0.5,0,0.9-0.2,1-0.8
		c0.1-0.3,0.3-0.4,0.5-0.6c0.2-0.2,0.4-0.4,0.6-0.6c0.5,0.1,1,0.3,1-0.5c0-0.2,0.3-0.3,0.4-0.4c1.2-0.9,1.4-1.2,1.1-2.5
		c0-0.2,0-0.3,0.1-0.5C161.1,155.8,161.4,155.7,161.1,155.6z M47.4,89.4c0.2-0.3,0.5-0.6,0.5-1c0-0.6,0.9-0.3,0.9,0.2
		c0,0.5-0.2,1-0.6,1.4c-0.2,0.2-0.4,0.2-0.6,0C47.5,90,47.3,89.6,47.4,89.4z M19,88.4c0.2-0.5,0.3-0.9,0.4-1.4
		c0-0.2,0.3-0.3,0.5-0.2c0.2,0.1,0.3,0.3,0.3,0.5c0,1.1,0.1,2.1,0.1,3.2c0,0.5-0.6,0.4-0.8,0c-0.2,0.1-0.6-0.1-0.6-0.4
		C18.8,89.5,18.8,89,19,88.4z M20.9,93.7c-0.1,0.4-0.5,0.3-0.7,0c-0.2-0.3-0.4-0.7-0.5-1.1c-0.1-0.2-0.2-0.6-0.4-0.7
		c-0.2-0.1-0.4-0.4-0.3-0.6c0-0.2,0.3-0.3,0.5-0.2c0.1,0,0.1,0.1,0.2,0.1c0,0,0,0,0,0c0.1-0.2,0.4-0.2,0.6,0
		c0.3,0.3,0.5,0.8,0.6,1.2C20.9,92.9,21,93.3,20.9,93.7z M25,64.9c-0.1,0.1-0.1,0.1-0.2,0.2C24.8,65,24.9,64.9,25,64.9z M23.9,65.5
		C24,65.5,24,65.5,23.9,65.5c0,0.1,0,0.3-0.1,0.4C23.9,65.8,23.9,65.7,23.9,65.5z M22.5,79.4c0-0.1,0.1-0.1,0.1-0.2
		c0.3-0.5,1,0.2,0.8,0.6c-0.2,0.3-0.2,0.6-0.2,0.9c0,0.5-0.6,0.4-0.8,0c-0.1-0.3-0.2-0.6-0.2-1C22.2,79.5,22.3,79.4,22.5,79.4z
		 M21.1,102.6c-0.2,0.1,0,0.3,0,0.5c0,0.1,0,0.2,0,0.3c-0.1,0-0.1-0.1-0.2-0.1c-0.2-0.2-0.1-0.4,0-0.6c0-0.2,0-0.3-0.2-0.4
		c0.1,0.1,0.3,0.1,0.5,0.1c0.3,0,0.4,0.3,0.4,0.5c0,0,0,0,0,0C21.4,102.7,21.3,102.4,21.1,102.6z M21.6,103.4c0,0.1,0,0.1,0,0.2
		c0,0.1,0,0.2,0,0.3c0-0.1-0.1-0.2-0.1-0.3c0,0-0.1,0-0.1-0.1C21.5,103.4,21.6,103.4,21.6,103.4z M22.8,108.4c0-0.2-0.1-0.3-0.3-0.5
		c-1-0.9-1.1-2-0.9-3.3c0-0.2,0.1-0.3,0.1-0.5c0.1,1.1,0.4,2.3,0.8,3.4c0.2,0.2,0.3,0.4,0.6,0.5c0.1,0.2,0.1,0.4,0.2,0.7
		c-0.2,0.2-0.3,0.5-0.2,0.8C22.9,109.2,22.8,108.8,22.8,108.4z M24.6,113.7C24.6,113.7,24.6,113.7,24.6,113.7c-0.1,0-0.2,0-0.3,0.1
		c-0.2,0.1-0.3,0.1-0.4-0.1c-0.6-0.8-1-1.8-0.9-2.7c0.1-0.5,0-1-0.1-1.4c0.2,0.4,0.3,0.8,0.4,1.2c0.2,0.5,0.7,0.4,1.1,0.6
		C24.5,112.2,24.8,112.9,24.6,113.7z M26.6,83.2c-0.1,0.2-0.2,0.5-0.3,0.7c0,0.2,0,0.3-0.1,0.5c-0.1,0.4-0.2,1,0,1.5
		c0.1,0.3,0.1,0.6,0.2,0.9c0,0.1-0.1,0.1-0.2,0.2C26,87.3,26,87.5,26,87.7c0,0.2,0.1,0.6,0,0.8c0,0,0,0,0,0c-0.2,0-0.3,0.1-0.4,0.2
		c0,0-0.1,0-0.2,0c0,0-0.1,0.1-0.2,0.1c0,0.1,0,0.1,0,0.2c-0.3,0.3-0.5,0.8-0.5,1.3c0.4,1.1,0.5,2.2,0.1,3.3c-0.3,1-0.5,2-0.3,3
		c0,0.3,0,0.5,0,0.8c0,0.5-0.1,1-0.2,1.5c0,0.3,0,0.6,0,0.9c-0.1,1.8,0,3.7,0,5.5c0,0.6-0.9,0.3-0.9-0.2c0-0.7,0-1.5,0-2.2
		c0-1.9,0.1-3.7,0.1-5.6c0-0.9,0-1.9-0.1-2.8c-0.1-0.9-0.2-1.8-0.3-2.7c0-0.4-0.1-0.9,0-1.3c0.1-0.3,0.2-0.6,0.3-0.9
		c0.2-0.3,0.4-0.7,0.4-1c0.1-0.4,0-0.9,0.1-1.3c0.1-0.5,0.2-0.9,0.4-1.3c0.2-0.4,0.3-0.8,0.5-1.1c0.3-0.8,0.7-1.6,1.1-2.4
		C26.1,82.1,26.8,82.8,26.6,83.2z M12.3,132c-0.1-0.5,0-0.9,0.3-1.2c0-0.1,0-0.2,0.1-0.3c0.2-0.2,0.5,0,0.6,0.1
		c0.3,0.4,0.7,0.6,0.9,1c0.1,0.2,0.1,0.5-0.2,0.6c-0.4,0.1-0.8,0.2-1.2,0.2C12.6,132.6,12.3,132.2,12.3,132z M16.1,134.8
		c-0.1,0.2-0.3,0.3-0.6,0.3c-0.2,0-0.4-0.1-0.6-0.2c-0.7-0.2-0.8,0.6-0.9,1.1c0,0.1-0.2-0.1-0.2-0.2c0,0,0,0,0,0
		c0,0-0.1-0.1-0.1-0.1c0-0.2-0.1-0.4-0.2-0.6c-0.2-0.2-0.4-0.4-0.6-0.7c0,0,0-0.1-0.1-0.1c-0.2-0.1-0.3-0.3-0.3-0.5
		c0-0.1,0.1-0.2,0.2-0.2c0-0.1,0.1-0.2,0.2-0.3c0.2-0.3,0.7-0.3,1-0.2c0,0,0,0,0,0c0,0,0,0,0-0.1c0-0.1,0.1,0,0.2,0.1
		c0.2,0,0.5,0.1,0.6,0c0.1-0.1,0.3,0.2,0.2,0.3c0.3,0.2,0.6,0.4,0.9,0.7C16,134.2,16.3,134.6,16.1,134.8z M18.5,121.6
		c0.1-0.6,0.9,0,0.8,0.4c0,0.1,0,0.1,0,0.1c0,0,0,0,0,0c0,0,0.1,0,0.1,0c0,0,0.1,0,0.1,0c0.1,0,0.2,0.1,0.3,0.1
		c0.2,0.1,0.4,0.3,0.4,0.5c0,0.2-0.2,0.4-0.4,0.3c-0.3-0.1-0.7-0.2-1-0.4C18.5,122.4,18.4,122,18.5,121.6z M19.6,147
		c-0.2,0.5-0.7,0.5-1.2,0.4c-0.1,0-0.3-0.2-0.2-0.3c0,0,0,0,0,0c-0.1-0.1-0.1-0.2,0-0.2c0.2,0,0.4,0,0.6,0c-0.1-0.1-0.1-0.2-0.1-0.2
		c0.2,0,0.4,0,0.5,0C19.5,146.8,19.6,147,19.6,147z M19.7,145.4c-0.1,0.3-0.4,0.3-0.6,0.1c-0.2-0.1-0.3-0.2-0.5-0.3
		c-0.1,0.1-0.3,0-0.5-0.1c-0.3,0.2-0.5,0.3-0.8,0.2c-0.6-0.1-0.8-0.7-0.9-1.2c0-0.2,0.2-0.4,0.4-0.3c0.2,0.1,0.4,0.3,0.4,0.5
		c0,0,0,0.1,0,0.1c0,0,0,0,0,0c0.2,0,0.3-0.1,0.5-0.3c0-0.1,0-0.1,0-0.2c-0.7-0.2-1.2-1.3-1.5-2c-0.1-0.2,0-0.4,0.2-0.4
		c0.2-0.1,0.5-0.1,0.7-0.2c0-0.2,0-0.3,0.1-0.4c0,0,0,0,0-0.1c-0.1-0.1-0.2-0.2-0.2-0.2c-0.6-0.2-0.4-1.1,0.3-1
		c0.4,0.1,0.6,0.3,0.8,0.6c0.1,0.1,0.2,0.2,0.3,0.3c0.4-0.1,0.7,0.4,0.5,0.7c-0.1,0.1-0.1,0.1,0.1,0.3c0.3,0.3,0.1,0.7-0.2,0.8
		c-0.4,0.2-0.8,0-1.1-0.3c0,0,0,0-0.1,0c-0.1,0-0.3,0-0.4,0.1c0.1,0.2,0.2,0.4,0.3,0.5c0.2,0.2,0.2,0.4,0.5,0.2
		c0.3-0.1,0.7,0.3,0.6,0.6c0,0.1-0.1,0.3-0.1,0.5c0.2,0,0.4,0,0.6,0.1C19.7,144.4,19.8,144.9,19.7,145.4z M23.4,136.1
		c-0.6-0.8-1.2-1.7-1.6-2.7c-0.1-0.3-0.2-0.6-0.3-0.9c-0.1-0.1-0.1-0.3-0.2-0.4c-0.2,0.1-0.5-0.2-0.6-0.4c-0.6-1.5-0.6-3.1-1-4.7
		c0,0,0-0.1,0-0.1c0-0.1,0-0.1-0.1-0.2c-0.1-0.4,0.1-0.8-0.1-1.2c-0.2-0.3-0.4-0.6-0.6-1c-0.2-0.3-0.3-0.7-0.4-1.1
		c0-0.2,0.2-0.4,0.4-0.3c0.3,0.1,0.4,0.3,0.4,0.5c0.1,0.8,0.9,1.4,1,2.2c0,0.1,0,0.3,0,0.4c0.3,0.3,0.4,0.6,0.5,1
		c0.1,0.1,0.2,0.2,0.3,0.3c0.8,1,0.7,2.3,0.5,3.5c0.1,0.2,0.2,0.5,0.3,0.7c0.3,0.5,0.4,1,0.6,1.6c0.3,1,0.9,1.8,1.5,2.7
		C24.4,136.2,23.6,136.4,23.4,136.1z M24.4,154.3C24.4,154.3,24.3,154.3,24.4,154.3c-0.1,0-0.1,0-0.2,0c-0.3-0.2-0.4-0.6-0.5-1
		c0,0,0,0,0,0c0-0.1,0-0.2,0-0.2c0-0.1,0-0.1,0.1,0C24.2,153.3,24.6,153.8,24.4,154.3z M30.4,58.3c0.1-0.2,0.2-0.3,0.3-0.5
		c0.3-0.5,1,0.2,0.8,0.6c-0.1,0.2-0.2,0.4-0.3,0.6c0,0,0,0.1-0.1,0.1c-0.1,0.1-0.1,0.2-0.2,0.3c-0.2,0.3-0.4,0.5-0.5,0.8
		c-0.2,0.5-0.2,1-0.6,1.3c-0.3,0.2-0.6-0.1-0.7-0.4C28.6,60.1,29.2,58.5,30.4,58.3z M29.2,62.5c-0.2-0.6,0.7-0.5,0.8,0
		c0.1,0.5,0.3,1.1,0.3,1.6c0.1,0.1,0.2,0.3,0.2,0.5c-0.2,0.6-0.4,1.3-0.9,1.8c-0.3,0.3-0.9-0.3-0.7-0.7c0.3-0.5,0.6-1,0.6-1.5
		C29.5,63.6,29.3,63,29.2,62.5z M28.2,146.5c0,0-0.1-0.1-0.1-0.2c-0.5-0.3-0.8-0.6-1.1-1c-0.2-0.3,0.6-0.5,0.8-0.2
		c0.2,0.3,0.4,0.5,0.6,0.7c0.2,0,0.3,0.1,0.4,0.3c0.1,0.1,0.1,0.1,0.1,0.2c0,0,0,0.1,0,0.1c0,0,0,0.1,0,0.1c0,0.1,0,0.1,0,0.2
		c-0.1,0.1-0.2,0.2-0.2,0.2c0,0,0,0.1,0,0.1c-0.1,0-0.1-0.1-0.2-0.1C28.4,146.7,28.3,146.6,28.2,146.5z M28.5,159.6
		c0.1-0.4,0.2-0.7,0.7-0.5c0,0,0,0,0,0C29.1,159.4,28.9,159.7,28.5,159.6z M29.9,157.7c-0.2,0.2-0.4,0.5-0.8,0.5
		c-0.1,0-0.2-0.1-0.3-0.2c0,0-0.1,0-0.1,0c-0.1,0-0.1,0.1-0.2,0.1c-0.1,0.1-0.3-0.2-0.2-0.3c0.1-0.1,0.2-0.1,0.3-0.1
		c0-0.1,0-0.2,0.1-0.3c0.2-0.2,0.5-0.1,0.7,0c0,0,0.1,0,0.1,0.1c0.1,0,0.1,0,0.2,0C29.8,157.5,30,157.7,29.9,157.7z M30.1,77.4
		c-0.3,0.4-0.6,0.8-1,1c-0.3,0.2-0.7-0.3-0.7-0.6c-0.3-0.1-0.5-0.6-0.2-0.8c0.3-0.3,0.6-0.6,1-0.9c0-0.1,0-0.1,0-0.2
		c0.1-0.6-0.1-1.3-0.2-1.9c-0.2-0.6,0.7-0.5,0.8,0c0.1,0.5,0.3,1.1,0.3,1.6c0.2,0.1,0.3,0.2,0.4,0.4C30.6,76.5,30.4,77,30.1,77.4z
		 M31.7,71.1c-0.1,0.5-0.1,1.1-0.1,1.7c0,0.5-0.1,1.1-0.5,1.4c-0.2,0.2-0.6,0-0.7-0.2c-0.2-0.3-0.4-0.5-0.5-0.8
		c-0.1-0.3-0.1-0.6,0-1c0.1-0.3,0.3-0.5,0.6-0.7c0.2-0.1,0.2-0.2,0.2-0.5c-0.1-0.3,0.1-0.4,0.3-0.4C31.1,70.2,31.7,70.7,31.7,71.1z
		 M32.7,59.9c-0.4,0.6-0.7,1.3-1,1.9c-0.2,0.5-1-0.2-0.8-0.6c0.3-0.7,0.6-1.3,1-1.9C32.2,58.9,32.9,59.5,32.7,59.9z M47.1,48.4
		c-0.2,0.5-0.5,0.9-0.8,1.2c-0.1,0.2-0.3,0.4-0.4,0.6c0,0,0,0.1,0,0.1c0,0.1,0,0.1,0,0.2c0,0.1-0.1,0.4-0.2,0.4
		c-0.2,0.1-0.6,0-0.7-0.2c-0.1-0.3-0.1-0.5,0-0.8c0-0.1,0-0.2,0.1-0.3c0.1-0.1,0.1-0.2,0.2-0.3c0.3-0.4,0.7-0.8,0.9-1.3
		C46.4,47.4,47.2,47.9,47.1,48.4z M49,42.9c-0.1-0.6,0.7-0.5,0.8,0c0.1,0.6-0.1,1.2-0.5,1.7C49,45,48.2,44.3,48.5,44
		C48.8,43.7,49,43.3,49,42.9z M41.2,47.5c0-0.2,0.3-0.3,0.5-0.2c0.1,0,0.2,0.1,0.2,0.2c0.8-0.6,1.3-1.6,2.4-1.8
		c0.2-0.1,0.5,0.1,0.6,0.3c0,0.1,0.1,0.1,0.1,0.2c0.4-0.5,0.9-0.9,1.3-1.4c0.5-0.8,0.8-1.6,1.7-2c0.4-0.2,0.9,0.6,0.5,0.9
		c-0.7,0.4-1,1.2-1.4,1.8c-0.2,0.3-0.5,0.6-0.8,0.9c-0.2,0.2-0.5,0.5-0.6,0.8c-0.1,0.6-0.9,0-0.8-0.4c0-0.1,0-0.2,0.1-0.2
		c0,0,0,0,0,0c-0.6,0.1-1,0.5-1.4,1c-0.2,0.2-0.3,0.4-0.5,0.5c0,0.1,0,0.2,0,0.3c-0.3,0.5-0.4,1-0.7,1.6c-0.2,0.5-0.5,0.9-0.9,1.3
		c-0.9,0.8-1.8,1.8-2.6,2.7c-0.1,0.1-0.4,0-0.5,0c-0.2-0.1-0.3-0.3-0.2-0.5C38.3,51,40.9,49.9,41.2,47.5z M44.7,50.1
		c-0.1,0.3-0.2,0.5-0.3,0.7c-0.1,0.2-0.4,0.1-0.6,0c-0.2-0.1-0.3-0.4-0.2-0.6c0.1-0.2,0.1-0.3,0.2-0.5c0.1-0.2,0.3-0.3,0.5-0.2
		C44.6,49.6,44.8,49.9,44.7,50.1z M38.2,46.8c0,0.2,0,0.4,0,0.6c0,0.1,0,0.3,0.1,0.3c0.2,0.2,0.3,0.4,0.2,0.6
		c-0.1,0.2-0.4,0.2-0.6,0c-0.5-0.5-0.6-1.1-0.6-1.8C37.3,46,38.2,46.3,38.2,46.8z M36.1,51l0.9-1.4c0.3-0.5,1,0.2,0.8,0.6l-0.9,1.4
		C36.6,52.1,35.8,51.4,36.1,51z M34.5,56.2c0.2-0.2,0.5-0.4,0.7-0.5c0.4-0.3,1,0.4,0.6,0.8c0,0-0.1,0.1-0.1,0.1
		c0.1,0.1,0.1,0.2,0.1,0.3c-0.1,0.5-0.3,0.9-0.4,1.4c0,0.1,0,0.2,0,0.3c-0.1,0.5-0.9,0.1-0.8-0.3c0-0.1,0-0.2,0-0.2
		c0-0.4,0.1-0.8,0.1-1.2c0,0,0,0-0.1-0.1C34.4,56.7,34.4,56.4,34.5,56.2z M33.4,63.9c1.1-1.1,2.5-2.3,2.5-4c0,0,0-0.1,0-0.1
		c0-0.3,0.9-0.4,0.9-0.1c0,0,0,0.1,0,0.1c0,0.2,0.1,0.4,0.2,0.5c0,0,0,0,0,0c0,0,0,0,0,0c0.2-0.3,0.3-0.6,0.5-0.9
		c0.4-0.6,0.7-1.3,1-1.9c0.1-0.3,0.2-0.7,0.5-1c0.1-0.2,1-0.2,0.8,0.1c-0.1,0.3-0.3,0.6-0.4,0.9c0,0.1,0,0.2-0.1,0.3
		c-0.1,0.4-0.1,0.8-0.1,1.2c0,0.4,0,0.8-0.3,1.2c-0.1,0.1-0.2,0.3-0.3,0.4c0.1,0,0.1,0,0.1,0.1c0.2-0.2,0.3-0.4,0.5-0.6
		c0.5-0.6,0.6-1.4,1-2.1c0.1-0.2,0.4-0.2,0.6-0.2c0-0.1,0.1-0.3,0.1-0.4c0-0.2,0.3-0.2,0.5-0.2c0,0-0.1-0.1-0.1-0.1
		c-0.1,0-0.1,0-0.2-0.1c-0.1-0.1-0.2-0.2-0.3-0.3c-0.3-0.3,0.3-0.4,0.6-0.4c0.5-0.6,1-1.1,1.2-1.9c0.2-0.6,0.3-1.4,0.7-2
		c0.2-0.3,0.6-0.4,0.9-0.3c0.3,0.1,0.5,0.4,0.5,0.7c0,0.3-0.3,0.5-0.4,0.6c-0.1,0.1-0.3,0.2-0.3,0.4c0.2,0,0.4,0,0.5,0.2
		c0.1,0,0.1,0.1,0.1,0.2c0.1-0.3,0.2-0.6,0.3-0.9c0.1-0.3,0.9-0.3,0.8,0c-0.2,1-0.8,1.8-1.3,2.7c0,0,0,0,0,0.1c0,0,0,0.1,0,0.1
		c0,0.1-0.1,0.1-0.1,0.2c0,0.2-0.1,0.3-0.1,0.5c-0.1,0.3-0.9,0.3-0.9,0c0-0.2,0-0.3,0.1-0.4c0,0-0.1-0.1,0-0.1
		c0.1-0.1,0.1-0.3,0.2-0.4c0.1-0.2,0.1-0.4,0.2-0.7c0-0.2,0.1-0.5,0-0.7c0,0,0-0.1,0-0.1c0,0,0,0,0,0c-0.1,0-0.2,0.1-0.3,0.1
		c-0.1,0.2-0.1,0.4-0.2,0.6c-0.3,0.6-0.9,1.1-1.2,1.7c0.3,0.2,0.4,0.5,0.4,0.9c0,0.3-0.5,0.3-0.8,0.2c0,0.1-0.1,0.2-0.1,0.4
		c0,0.3-0.5,0.3-0.7,0.2c-0.1,0.3-0.2,0.6-0.4,0.9c0,0,0.1,0.1,0.1,0.1c0.1,0.6-0.3,1.2-0.6,1.7c-0.4,0.5-0.8,1-1.4,1.3
		c-0.1,0.1-0.6,0.1-0.7-0.1c0-0.3,0-0.6,0-0.9c0,0,0,0,0,0c0,0.4-0.1,0.8-0.3,1.2c-0.1,0.1-0.3,0.2-0.5,0.2c0,0,0,0,0,0
		c-0.1,0.2-0.1,0.5-0.2,0.7c-0.1,0.5-0.2,1-0.5,1.5c-0.3,0.6-0.7,1.3-0.9,1.9c-0.3,0.7-0.4,1.5-0.6,2.3c-0.1,0.3-0.9,0.3-0.9,0
		c0-0.6,0.2-1.2,0.4-1.8c0.2-0.5,0.2-1,0.2-1.5c0-0.4,0-0.8-0.1-1.1c-0.1-0.4-0.7-0.5-1.1-0.6C33.4,64.1,33.3,64,33.4,63.9z
		 M39.9,164.8c-0.3,0-0.7,0-1-0.1c0,0-0.1,0.1-0.2,0.1c-0.3,0.1-0.6,0-0.8-0.1c-0.2,0-0.4,0-0.6,0c-0.1,0.2-0.3,0.4-0.5,0.4
		c-0.3,0.1-0.6,0-0.8-0.2c-0.1,0-0.1,0-0.2,0c-0.5-0.1-1-0.6-1.3-1c-0.4-0.4-0.7-0.9-0.9-1.4c-0.1-0.2,0-0.5,0.3-0.5
		c0.4,0,0.9,0.1,1.3,0.2c-0.1-0.3,0.1-0.6,0.5-0.5c0.6,0.2,0.9,0.8,1.4,1.2c0.4,0.3,0.8,0.5,1.2,0.7c0.4,0.1,0.9,0.1,1.3,0.1
		C40.1,163.9,40.5,164.8,39.9,164.8z M42.4,62.1c-0.5,0.6-1.1,1.1-1.6,1.6c-0.3,0.3-1-0.4-0.6-0.8c0.5-0.5,1.1-0.9,1.5-1.5
		C42,61.1,42.7,61.7,42.4,62.1z M43.4,92.1c-0.2,0.5-1-0.2-0.8-0.6c0.2-0.3,0.2-0.8,0.1-1.1c-0.1-0.6,0.7-0.5,0.8,0
		C43.6,90.9,43.7,91.5,43.4,92.1z M46,100.6c-0.1,0.2-0.4,0.2-0.6,0c-0.2-0.2-0.5-0.3-0.7-0.5c-0.2-0.2-0.3-0.4-0.2-0.6
		c0.1-0.2,0.4-0.2,0.6,0c0.2,0.2,0.5,0.4,0.7,0.5C46,100.1,46.1,100.4,46,100.6z M46.4,90.2c-0.1,0.2-0.2,0.4-0.3,0.7
		c0,0.1,0,0.1-0.1,0.2c0,0,0,0,0,0c0,0.1,0,0.2,0,0.2c-0.1,0.2-0.4,0.2-0.6,0c-0.1-0.1-0.2-0.2-0.2-0.3c-0.3,0.3-0.5,0.5-0.6,0.9
		c0,0.1,0,0.1,0,0.2c0,0.2-0.3,0.3-0.5,0.2c-0.2-0.1-0.4-0.4-0.3-0.6c0-0.1,0-0.2,0-0.3c0.1-0.6,0.2-1.2,0.5-1.7
		c0.3-0.5,0.7-0.8,1.2-1.1c0.1-0.2,0.2-0.2,0.3-0.2c0,0,0,0,0,0c0.2-0.1,0.6,0.2,0.6,0.4C46.7,89.3,46.5,89.7,46.4,90.2z
		 M100.5,157.3c-0.1,0.1-0.4,0.2-0.6,0.1c-1.1-0.3-2.1-0.8-3-1.5c-1.6-0.1-3-1.2-4.5-1.7c-1.6-0.5-3.4-1-4.6-2.2
		c-0.1-0.1-0.3-0.3-0.2-0.5c0-0.1,0.1-0.2,0.2-0.2c0-0.2,0-0.4,0.2-0.4c0.8-0.2,1.6,0.4,2.3,0.7c0.4,0.2,0.9,0.4,1.3,0.5
		c0.5,0.2,1,0.4,1.5,0.5c0.4,0.1,0.9,0.2,1.3,0.5c0.2,0.2,0.3,0.4,0.5,0.6c0.1,0.1,0.1,0.3,0.2,0.3c0.7,0.5,1.5,0.6,2.2,1
		c0.2,0.1,0.3,0.3,0.3,0.5c0.2,0.2,0.5,0.3,0.8,0.5c0.6,0.3,1.2,0.7,1.9,0.9C100.4,157.1,100.6,157.2,100.5,157.3z M141.2,159
		c0.2-0.1,0.4-0.2,0.6-0.4c-0.1-0.3-0.1-0.6-0.1-0.9c0-0.2,0.2-0.3,0.4-0.2c0.3,0,0.7,0,0.9-0.2c0.1-0.1,0.3-0.1,0.4,0
		c0.2-0.2,0.4-0.3,0.7-0.5c0.2-0.1,0.4,0,0.6,0.1c0.5-0.3,0.9-0.6,1.4-1c0.2-0.1,0.4-0.1,0.6-0.1c0.2,0.1,0.2,0.2,0,0.3
		c-0.6,0.4-1.2,0.9-1.9,1.3c0,0,0,0-0.1,0.1c-0.7,0.4-1.3,0.9-2,1.3c0,0.1,0,0.2-0.1,0.2c-0.3,0.2-0.5,0.4-0.8,0.5
		c-0.2,0.1-0.4,0-0.6-0.1C141.2,159.5,141,159.2,141.2,159z M150,157.9c-0.1,0.1-0.3,0.2-0.4,0.2c0,0,0,0.1-0.1,0.1
		c-0.5,0.6-1.2,0.9-1.9,1.1c-0.3,0.3-0.6,0.5-1,0.7c0,0.1,0,0.2-0.1,0.3c-0.3,0.4-0.6,0.8-1.2,0.8c-0.3,0-0.5-0.1-0.8-0.1
		c-0.1,0.1-0.2,0.1-0.3,0.2c0,0.1-0.1,0.1-0.1,0.2c-0.1,0.1-0.4,0.2-0.5,0.1c-0.6,0.2-1.1,0.4-1.7,0.6c-0.1,0-0.2,0-0.3,0
		c-0.6,0.4-1.2,0.8-1.8,1.1c-0.9,0.5-1.9,1-2.9,1.1c-0.1,0-0.4,0-0.5-0.2c0-0.2,0.3-0.3,0.4-0.3c0.9-0.1,1.7-0.6,2.5-1
		c0.6-0.4,1.3-0.8,1.9-1.3c0-0.1,0-0.3,0.2-0.3c0.1,0,0.1-0.1,0.2-0.1c0-0.2,0-0.3,0.2-0.4c0.2-0.1,0.4-0.2,0.7-0.3
		c0-0.1,0.1-0.1,0.2-0.1c1.2-0.3,2.3-1,3.5-1.4c0.3-0.1,0.5-0.2,0.8-0.3c0,0,0.1-0.1,0.1-0.1c0.1-0.2,0.3-0.2,0.5-0.1
		c0.5-0.2,0.9-0.5,1.3-0.9c0.2-0.2,0.4-0.1,0.6,0.1c0.2-0.1,0.4-0.1,0.5,0C150.1,157.7,150.2,157.8,150,157.9z M158.6,156.8
		c0.1,0.2,0.2,0.4,0,0.6c-0.5,0.6-1.2,1-1.7,1.6c-0.1,0.1-0.2,0.1-0.3,0.1c-0.1,0.1-0.1,0.1-0.2,0.2c0,0,0,0-0.1,0.1
		c-0.4,0.3-1-0.4-0.6-0.8c0,0,0.1-0.1,0.1-0.1c0.3-0.3,0.6-0.8,0.9-1.2c0.3-0.5,0.7-0.9,1.1-1.2c0.3-0.2,0.6,0.1,0.7,0.4
		c0.1-0.1,0.2-0.2,0.3-0.3c-0.1,0.1-0.2,0.2-0.3,0.3C158.7,156.6,158.7,156.7,158.6,156.8z"/>
	<path class="st0" d="M47.5,171.7c0,0-0.1-0.1-0.1-0.1c-0.2-0.1-0.5-0.3-0.7-0.4c-0.1,0-0.2-0.1-0.3-0.1c0.4,0.2,0.9,0.5,1.3,0.8
		c0,0,0,0,0,0C47.6,171.8,47.6,171.8,47.5,171.7z"/>
	<path class="st0" d="M34.9,163.2c0-0.1,0-0.1,0-0.2c-0.1,0-0.1,0-0.2,0C34.8,163.1,34.8,163.1,34.9,163.2z"/>
	<path class="st0" d="M25.9,84.7c0,0.1-0.1,0.2-0.1,0.2c0.1-0.2,0.2-0.4,0.3-0.5c0-0.1,0.1-0.3,0.1-0.4C26.1,84.2,26,84.5,25.9,84.7
		z"/>
	<path class="st0" d="M13.1,134.6c0.1,0.1,0.1,0.1,0.2,0.2c0-0.1,0-0.1-0.1-0.2C13.2,134.6,13.2,134.6,13.1,134.6z"/>
	<path class="st0" d="M24,153.3c0,0.2,0.1,0.3,0.2,0.4C24.2,153.6,24.1,153.4,24,153.3z"/>
</g>
<rect x="24.5" y="69.7" class="st1" width="6.6" height="6.6"/>
<rect x="5.8" y="120.1" class="st1" width="6.6" height="6.6"/>
<rect x="51" y="49.8" class="st1" width="6.6" height="6.6"/>
<rect x="24.5" y="56.5" class="st1" width="6.6" height="6.6"/>
<rect x="110.5" y="10.1" class="st2" width="6.6" height="6.6"/>
<rect x="44.4" y="49.8" class="st2" width="6.6" height="6.6"/>
<rect x="156.9" y="30" class="st2" width="6.6" height="6.6"/>
<rect x="117.2" y="49.8" class="st2" width="6.6" height="6.6"/>
<rect x="57.6" y="36.6" class="st2" width="6.6" height="6.6"/>
<rect x="77.5" y="43.2" class="st2" width="6.6" height="6.6"/>
<rect x="130.4" y="10.1" class="st3" width="6.6" height="6.6"/>
<rect x="31.2" y="82.9" class="st3" width="6.6" height="6.6"/>
<rect x="57.6" y="56.5" class="st3" width="6.6" height="6.6"/>
<rect x="167.2" y="35.7" class="st4" width="6.6" height="6.6"/>
<rect x="130.4" y="56.5" class="st4" width="6.6" height="6.6"/>
<rect x="23" y="34.2" class="st4" width="6.6" height="6.6"/>
<rect x="159.2" y="51.1" class="st4" width="6.6" height="6.6"/>
<rect x="90.7" y="43.2" class="st5" width="6.6" height="6.6"/>
<rect x="13.3" y="106.9" class="st5" width="6.6" height="6.6"/>
<rect x="44.4" y="76.3" class="st5" width="6.6" height="6.6"/>
<rect x="150.2" y="30" class="st6" width="6.6" height="6.6"/>
<rect x="143.6" y="36.6" class="st6" width="6.6" height="6.6"/>
<rect x="143.6" y="43.2" class="st6" width="6.6" height="6.6"/>
<rect x="123.8" y="30" class="st6" width="6.6" height="6.6"/>
<rect x="113.7" y="1.7" class="st6" width="6.6" height="6.6"/>
<rect x="117.2" y="23.4" class="st6" width="6.6" height="6.6"/>
<rect x="110.5" y="36.6" class="st6" width="6.6" height="6.6"/>
<rect x="97.3" y="23.4" class="st6" width="6.6" height="6.6"/>
<rect x="90.7" y="16.8" class="st6" width="6.6" height="6.6"/>
<rect x="77.5" y="36.6" class="st6" width="6.6" height="6.6"/>
<rect x="44.4" y="43.2" class="st6" width="6.6" height="6.6"/>
<rect x="57.6" y="43.2" class="st6" width="6.6" height="6.6"/>
<rect x="150.2" y="23.4" class="st7" width="6.6" height="6.6"/>
<rect x="150.2" y="43.2" class="st7" width="6.6" height="6.6"/>
<rect x="24.6" y="76.3" class="st7" width="6.6" height="6.6"/>
<rect x="17.9" y="82.9" class="st7" width="6.6" height="6.6"/>
<rect x="37.8" y="89.6" class="st7" width="6.6" height="6.6"/>
<rect x="31.8" y="109.2" class="st7" width="6.6" height="6.6"/>
<rect x="11.3" y="89.5" class="st7" width="6.6" height="6.6"/>
<rect x="130.4" y="16.8" class="st7" width="6.6" height="6.6"/>
<rect x="123.8" y="49.8" class="st7" width="6.6" height="6.6"/>
<rect x="24.6" y="89.5" class="st7" width="6.6" height="6.6"/>
<rect x="90.7" y="30" class="st7" width="6.6" height="6.6"/>
<rect x="70.8" y="16.8" class="st7" width="6.6" height="6.6"/>
<rect x="156.9" y="36.6" class="st8" width="6.6" height="6.6"/>
<rect x="150.2" y="36.6" class="st8" width="6.6" height="6.6"/>
<rect x="110.5" y="43.2" class="st8" width="6.6" height="6.6"/>
<rect x="103.9" y="3.2" class="st8" width="6.6" height="6.6"/>
<rect x="103.9" y="23.4" class="st8" width="6.6" height="6.6"/>
<rect x="97.3" y="36.6" class="st8" width="6.6" height="6.6"/>
<rect x="97.3" y="43.2" class="st8" width="6.6" height="6.6"/>
<rect x="47.6" y="19.6" class="st8" width="6.6" height="6.6"/>
<rect x="172.7" y="26.4" class="st8" width="6.6" height="6.6"/>
<rect x="77.5" y="6.9" class="st8" width="6.6" height="6.6"/>
<rect x="64.2" y="49.8" class="st8" width="6.6" height="6.6"/>
<rect x="31.1" y="63.1" class="st8" width="6.6" height="6.6"/>
<rect x="57.6" y="30" class="st8" width="6.6" height="6.6"/>
<rect x="51" y="56.5" class="st8" width="6.6" height="6.6"/>
<rect x="44.4" y="63.1" class="st8" width="6.6" height="6.6"/>
<rect x="37.7" y="69.7" class="st8" width="6.6" height="6.6"/>
<rect x="25.2" y="102.3" class="st8" width="6.6" height="6.6"/>
<rect x="123.8" y="10.1" class="st9" width="6.6" height="6.6"/>
<rect x="51" y="36.6" class="st9" width="6.6" height="6.6"/>
<rect x="37.7" y="56.5" class="st9" width="6.6" height="6.6"/>
<rect x="103.9" y="36.6" class="st9" width="6.6" height="6.6"/>
<rect x="143.6" y="23.4" class="st0" width="6.6" height="6.6"/>
<rect x="141" y="5.9" class="st0" width="6.6" height="6.6"/>
<rect x="159.2" y="15.1" class="st0" width="6.6" height="6.6"/>
<rect x="143.6" y="49.8" class="st0" width="6.6" height="6.6"/>
<rect x="137" y="16.8" class="st0" width="6.6" height="6.6"/>
<rect x="137" y="30" class="st0" width="6.6" height="6.6"/>
<rect x="137" y="36.6" class="st0" width="6.6" height="6.6"/>
<rect x="137" y="43.2" class="st0" width="6.6" height="6.6"/>
<rect x="130.4" y="23.4" class="st0" width="6.6" height="6.6"/>
<rect x="130.4" y="30" class="st0" width="6.6" height="6.6"/>
<rect x="130.4" y="36.6" class="st0" width="6.6" height="6.6"/>
<rect x="130.4" y="49.8" class="st0" width="6.6" height="6.6"/>
<rect x="123.8" y="16.8" class="st0" width="6.6" height="6.6"/>
<rect x="123.8" y="36.6" class="st0" width="6.6" height="6.6"/>
<rect x="123.8" y="43.2" class="st0" width="6.6" height="6.6"/>
<rect x="117.2" y="16.8" class="st0" width="6.6" height="6.6"/>
<rect x="117.2" y="30" class="st0" width="6.6" height="6.6"/>
<rect x="117.2" y="36.6" class="st0" width="6.6" height="6.6"/>
<rect x="110.5" y="16.8" class="st0" width="6.6" height="6.6"/>
<rect x="110.5" y="23.4" class="st0" width="6.6" height="6.6"/>
<rect x="103.9" y="30" class="st0" width="6.6" height="6.6"/>
<rect x="97.3" y="10.1" class="st0" width="6.6" height="6.6"/>
<rect x="97.3" y="16.8" class="st0" width="6.6" height="6.6"/>
<rect x="90.7" y="36.6" class="st0" width="6.6" height="6.6"/>
<rect x="84.1" y="16.8" class="st0" width="6.6" height="6.6"/>
<rect x="84.1" y="30" class="st0" width="6.6" height="6.6"/>
<rect x="84.1" y="36.6" class="st0" width="6.6" height="6.6"/>
<rect x="77.5" y="23.4" class="st0" width="6.6" height="6.6"/>
<rect x="70.8" y="23.4" class="st0" width="6.6" height="6.6"/>
<rect x="70.8" y="30" class="st0" width="6.6" height="6.6"/>
<rect x="70.8" y="36.6" class="st0" width="6.6" height="6.6"/>
<rect x="42" y="32.1" class="st0" width="6.6" height="6.6"/>
<rect x="70.8" y="43.2" class="st0" width="6.6" height="6.6"/>
<rect x="64.2" y="36.6" class="st0" width="6.6" height="6.6"/>
<rect x="57.6" y="49.8" class="st0" width="6.6" height="6.6"/>
<g>
	<g>
		<g>
			<g>
				<g>
					<path class="st10" d="M112,119.1c0-1,0.1-1.9,0.4-2.8c-0.4,0-0.8,0.1-1.3,0.1c0.3-0.3,0.6-0.4,0-0.7c0.5,0.1,1,0.1,1.4,0.2
						c0.5-1.5,1.3-2.8,2.4-4c-0.9-1.6-1.4-3.5-1.5-5.4c-3.2-4.2-2.8-10.9,1-14.5c0.3-0.6,0.7-1.2,1.2-1.8c-0.3-1.5-0.3-3.2,0-4.7
						c-1.1-1.2-1.9-2.7-2.4-4.3c-1.4-2.3-1.8-5.2-1.4-7.9c-0.6-0.1-1.2-0.3-1.8-0.4c-0.8-0.2-1-0.4-0.9-1.3c0-0.3,0-0.6-0.1-0.8
						c-0.5-0.8-1-1.6-1.5-2.4c-0.2,0.1-0.3,0.3-0.5,0.4c-0.1-0.1-0.2-0.3-0.4-0.5c0-0.1,0.1-0.2,0.2-0.4c0.1,0.1,0.2,0.2,0.3,0.4
						c0.4-0.6-0.4-0.7-0.4-1.1c0.5-0.5,0.4-0.9-0.2-1.4c-0.8,0.9-1.4,1.2-1.7,1c-0.4,0.2-0.5,0.8-1.2,0.4c-0.3,0.4-0.6,0.8-0.9,1.2
						c0-0.1,0-0.1-0.1-0.2c-0.1,0-0.1,0.1-0.2,0.1c-0.1,0.1-0.2,0.2-0.3,0.3c-0.2,0.2-0.5,0.4-0.7,0.6c0,0-0.1,0.1-0.1,0.1
						c0-0.1-0.1-0.2-0.1-0.2c-0.6,0.3-0.9,1-1.7,1c0,0-0.1,0.1-0.1,0.1c-0.1,0.4-0.5,0.2-0.7,0.2c0,0-0.1-0.3-0.2-0.6
						c-0.8,0.6-1.7,0.9-2.3,1.9c0-0.3,0-0.4,0-0.5c-0.4,0.3-0.8,0.6-1.2,0.8c-0.5,0.3-0.9,0.7-1.2,1.3c-0.2,0.4-0.5,0.8-0.8,1.2
						c-0.2,0.3-0.5,0.5-0.8,0.8c0,0-0.2,0-0.3,0c-0.7,0.4-1.3,0.9-2.1,1.2c-0.8,0.3-1.4,1-2.1,1.4c-0.5,0.2-0.9,0.6-1.4,0.9
						c-1,0.8-2,1.7-2.9,2.6c-0.5,0.4-0.9,0.8-1.4,1.2c-0.1,0.1-0.1,0.3-0.2,0.5c0,0,0.1,0,0.1,0.1c0.1-0.1,0.2-0.3,0.3-0.4
						c0,0,0.1,0,0.1,0.1c-0.1,0.2-0.1,0.5-0.2,0.5c-0.5,0.1-0.5,0.4-0.5,0.7c0.2,0.1,0.4,0.2,0.6,0.3c0.5-0.5-0.5-0.3-0.3-0.7
						c0.3,0.1,0.5,0.3,0.9,0.4c0.1-0.1,0.4-0.2,0.7-0.3c0.3-0.1,0.6-0.1,0.9-0.2c0,0.1,0,0.1,0.1,0.2c-0.4,0.4-0.5,1.1-1.2,1.2
						c-0.1,0-0.1,0.3-0.1,0.4c0.3,0.3,0.2,0.5,0,0.8c-0.1,0.3-0.3,0.6-0.4,0.8c0,0,0.1,0.1,0.1,0.1c1.2-1,2.3-2.3,3.4-3.5
						c-0.1,0.3-0.2,0.6-0.4,0.9c-0.3,0.4-0.7,0.8-1.1,1.2c-0.4,0.4-0.2,0.9-0.3,1.4c-0.1,0.6,0.4,0.3,0.4,0.6c0.1,0,0.3,0,0.4-0.1
						c0.3-0.4,0.5-0.7,0.8-1.2c-0.3,0.2-0.4,0.3-0.6,0.4c0-0.2,0.1-0.4,0.2-0.5c0.3-0.4,0.7-0.8,0.9-1.2c0.2-0.3,0.3-0.3,0.6-0.3
						c-0.1,0.3-0.2,0.6-0.4,0.9c0.2-0.1,0.3-0.2,0.5-0.3c0,1-0.8,1.7-1,2.5c0.4-0.4,0.9-0.9,1.2-1.4c0.3-0.5,0.7-0.8,1.2-1
						c0.2-0.1,0.5-0.2,0.6-0.4c0.2-0.2,0.3-0.5,0.5-0.7c0.1,0,0.1,0.1,0.2,0.1c-0.1,0.2-0.3,0.3-0.4,0.5c-0.1,0.2,0,0.4-0.1,0.7
						c0.6-0.6,1.1-1.2,1.6-1.7c0.2,0.3,0.3,0.4,0.5,0.6c0.6-0.6,1.3-1.1,2.1-0.9c-0.2,0.3-0.3,0.7-0.5,1c-0.1,0.1-0.2,0.3-0.4,0.3
						c-0.4,0.2-0.8,0.3-1.3,0.4c0-0.2,0.1-0.5,0.1-0.7c-0.4,0.3-0.7,0.6-1,0.8c-0.1,0.1-0.3,0.2-0.3,0.3c0,0.3,0.1,0.7,0.1,0.9
						c-0.2,0.2-0.5,0.3-0.5,0.4c0,0.3-0.3,0.4-0.5,0.5c-0.1,0.1-0.2,0-0.3,0.1c0-0.1-0.1-0.2,0-0.3c0-0.1,0.2-0.2,0.2-0.3
						c0,0-0.1,0-0.1-0.1c-0.3,0.5-0.8,0.8-0.7,1.6c0.2-0.3,0.4-0.5,0.6-0.7c0.1,0.3,0.1,0.4,0.2,0.6c0,0,0.1,0,0.1,0
						c0.1-0.2,0.1-0.4,0.2-0.5c0.3-0.1,0.7-0.2,0.9-0.3c0.4-0.2,0.7-0.6,1-0.9c0.5-0.5,1.1-0.9,1.5-1.5c0.3-0.5,0.5-0.6,0.9-0.1
						v-0.5h1.1c-0.3-0.7-0.9-0.3-1.5-0.4c0.7-0.3,1.2-0.3,1.8-0.2c0.3,0,0.7,0.3,1-0.1c0,0,0.2,0,0.3,0.1c0.1,0.1,0.1,0.2,0.1,0.3
						c0.3,0.1,0.7,0.1,1.1,0.1c0-0.2,0-0.3-0.1-0.5c0.7,0.2,1.3,0.3,1.9,0.4c0,0.2,0,0.3-0.1,0.4c-0.1,0-0.3,0-0.3,0
						c-1,0.7-2,1.2-2.7,2.3c0-0.1-0.1-0.2-0.1-0.3c-0.8,0.5-1.6,0.9-2.5,1.4c-0.2,0.8-0.3,0.9-1,0.5c0,0.2-0.1,0.3-0.1,0.5
						c-0.2,0-0.3,0-0.5,0.1c-0.1-0.6,0.3-1.1,0.9-1.1c-0.3-0.7,0.2-0.9,0.7-1.1c-0.1,0.2-0.3,0.5-0.4,0.7c-0.1,0.1-0.2,0.3-0.2,0.3
						c0.1,0.1,0.2,0.1,0.3,0.2c0.2-0.4,0.3-0.8,0.5-1.2c0,0,0.1,0,0.1,0c0.3-0.1,0.5-0.2,0.8-0.2c0-0.1-0.1-0.2-0.1-0.3
						c0.1-0.3,0.1-0.5-0.2-0.5c-0.3,0-0.7-0.3-0.9,0.1c0.2,0.2,0.3,0.4,0.4,0.6c0,0-0.1,0-0.1,0.1c-0.2-0.1-0.3-0.3-0.5-0.4
						c-0.1,0.1-0.2,0.3-0.3,0.4c-0.1,0-0.3-0.1-0.4-0.1c0,0,0,0.1,0,0.1c0.1,0.1,0.2,0.1,0.3,0.2c-0.2,0.3-0.4,0.5-0.7,0.8
						c-0.1,0.1-0.2,0.1-0.2,0.1c-0.3-0.2-0.4,0.1-0.6,0.2c-0.4,0.3-0.8,0.6-1.1,0.9c-0.1,0.1-0.2,0.2-0.3,0.3c0,0.1,0.2,0.2,0.3,0.3
						c-0.2,0.1-0.4,0.2-0.6,0.2c0,0.6,0.4,0.2,0.8,0.1c-0.3,0.5-0.6,0.8-0.9,1.3c0-0.2,0-0.2,0-0.3c0,0,0-0.1,0-0.2
						c0,0-0.1-0.1-0.2-0.1c0.1,1.3-1,1.3-1.5,1.8c-0.2-0.1-0.4-0.2-0.5-0.2c-0.3,0.1-0.9,1-1,1.4c0,0.7-0.4,0.9-1.1,0.5
						c0,0.3-0.1,0.5-0.1,0.7c0,0.1,0,0.3,0,0.4c-0.2,0.4-0.4,0.7-0.6,1.1c-0.1,0.1-0.1,0.2-0.2,0.4c-0.1-0.3-0.1-0.4-0.1-0.5
						c-0.2,0.2-0.4,0.4-0.6,0.7c-0.2,0.3-0.6,0.5-0.6,0.8c0,0.7-0.3,0.2-0.4,0.2c-0.3,0.8-0.6,1.6-0.9,2.4c-0.1,0,0,0.2,0,0.2
						c-0.1,0.7-0.2,1.3-0.3,2c-0.1,1-0.3,2-0.3,3c0,0.5,0.1,1,0.1,1.4c0,0.7,0.2,1.4,0.4,2c0.2,0.8,0.6,1.6,0.5,2.5
						c0,0.1,0.1,0.3,0.2,0.5c0,0.5,0.5,0.7,0.8,1.1c0.5,0.5,0.9,1,1.4,1.5c0.2,0.2,0.4,0.5,0.4,0.6c-0.3,0.7,0.3,1.1,0.6,1.5
						c0.7,0.7,1.4,1.2,2.2,1.8c0.2,0.2,0.5,0.3,0.7,0.3c0.5,0.2,1,0.3,1.4,0.5c0.7,0.5,1.4,1.1,2.1,1.6c0.3,0.2,0.7,0.4,1,0.6
						c0.7,0.4,1.3,0.9,2,1.3c0.7,0.4,1.4,0.7,1.9,1.4c0.9,1.1,2.1,1.8,3.5,2c1.3,0.2,2.6,0.2,3.8-0.3c1.4-0.5,2.9-0.8,4.2-1.7
						c0.1-0.1,0.2,0,0.3-0.1c0.4-0.2,0.9-0.1,1.2-0.6c0.2-0.3,0.7-0.5,1-0.6c0.4-0.1,0.6-0.1,0.5-0.5c0.2,0,0.4,0,0.7,0
						c-0.1-0.3-0.1-0.5-0.2-0.8C112.1,120.9,112,120,112,119.1z M86.8,83.7c-0.1,0-0.1,0-0.2,0c0-0.1-0.1-0.3,0-0.4
						c0.3-0.4,0.6-0.8,0.9-1.2c0.1,0,0.1,0.1,0.2,0.1C87.5,82.8,87.1,83.3,86.8,83.7z M87.8,83.5c-0.1-0.4,0-0.5,0.7-1
						C88.3,82.8,88,83.1,87.8,83.5z M88.7,82.2c0,0-0.1-0.1-0.1-0.1c0.6-0.8,1.2-1.5,1.8-2.3c0,0,0.1,0.1,0.1,0.1
						C89.9,80.6,89.3,81.4,88.7,82.2z M84,101.1c-0.1,0-0.1,0-0.2,0c0-0.4,0.1-0.8,0.1-1.2c0.1,0,0.2,0,0.2,0
						C84.2,100.3,84.1,100.7,84,101.1z M85.2,113c0.5,0.2,0.9,0.4,1.3,0.5C86,113.7,85.6,113.6,85.2,113z M109.2,98.5
						c0,0.1,0,0.1,0,0.2c-0.4,0.1-0.9,0.1-1.3,0.2c0-0.1,0-0.2,0-0.3C108.4,98.6,108.8,98.6,109.2,98.5z M105.4,70.9
						c0.1,0.2,0.1,0.3,0.2,0.5c-0.3,0.1-0.7,0.2-1,0.2c0,0-0.1-0.1-0.1-0.1C104.8,71.4,105.1,71.2,105.4,70.9z M104.7,72.7
						c0-0.3,0-0.5,0.1-0.9C105.2,72.4,105.1,72.5,104.7,72.7z M105.4,74.8c0.6-0.1,1.2-0.5,1.9-0.2c0,0,0,0.1,0,0.1
						C106.7,74.8,106.1,74.8,105.4,74.8c-0.4,0.3-0.9,0.6-1.3,0.9c0-0.1-0.1-0.1-0.1-0.2C104.3,75,104.9,75,105.4,74.8z M105.8,98.9
						c-0.3,0-0.6-0.1-0.9-0.1c0,0,0-0.1-0.1-0.4C105.1,98.6,105.6,98.3,105.8,98.9z M103.8,75.6c-0.1,0.2-0.2,0.4-0.3,0.6
						c0.1,0,0.2,0,0.3,0.1c0,0.1,0,0.1,0,0.2c-0.2,0-0.4,0-0.6,0c-0.2,0-0.4,0.1-0.7,0.1c0.4-0.4,0.8-0.7,1.1-1.1
						C103.7,75.5,103.7,75.6,103.8,75.6z M103.7,73.7c0.1,0.6-0.1,0.7-0.7,0.6C103.2,74.1,103.4,73.9,103.7,73.7z M101.8,74.5
						c0.4-0.1,0.5-0.3,0.5-0.7c0.2,0,0.3-0.1,0.6-0.1c-0.5,0.6-0.7,1.3-1.5,1.3c0,0-0.1-0.1-0.1-0.1
						C101.4,74.7,101.6,74.5,101.8,74.5z M101.8,79.1c-0.3,0.1-0.6,0.2-1,0.3c0.2-0.6,0.6-0.5,0.9-0.5
						C101.8,79,101.8,79.1,101.8,79.1z M100.7,75.6c0.3,0.5,0.5,0,0.8-0.1c-0.3,0.4-0.7,0.9-1,1.3c-0.2-0.2-0.3-0.3-0.3-0.5
						C100.3,76.2,100.5,75.9,100.7,75.6z M97.1,78.9c0,0,0.1,0.1,0.2,0.1c-0.4,0.5-0.7,1-1.1,1.5c0,0-0.1,0-0.1-0.1
						C96.4,79.9,96.7,79.4,97.1,78.9z M94.2,78.4c-0.1,0-0.1-0.1-0.2-0.1c0.9-1.2,1.7-2.4,2.6-3.7c0,0,0.1,0.1,0.1,0.1
						C95.9,75.9,95.1,77.1,94.2,78.4z M94.9,82.8c0.7-0.8,2.4-1.2,2.8-0.8C96.8,82.3,95.9,82.5,94.9,82.8z M97.6,80.3
						c0.1,0.5-0.2,0.7-1,0.7c0.5-0.4,0.4-1.2,1.2-1.3c0,0-0.1-0.1-0.1-0.1c0.2-0.2,0.3-0.4,0.4-0.6c0-0.1,0.1-0.1,0.1-0.2
						c0.1-0.2,0.2-0.5,0.4-0.6c0.6-0.2,0.7-0.7,0.9-1.1c0.1-0.2,0.4-0.1,0.7-0.2c0,0.1,0.1,0.2,0.1,0.2c-0.6,0.6-1.2,1.2-1.8,1.8
						l0.1,0.3C98.3,79.6,98,80,97.6,80.3z M98,90.6c-0.1,0.9-1,2.3-1.6,2.5C96.9,92.3,97.5,91.5,98,90.6z M95.6,93.7
						c0,0,0.1,0,0.1,0.1c-0.2,0.5-0.5,0.9-0.7,1.4c-0.1,0-0.1-0.1-0.2-0.1C95.1,94.7,95.3,94.2,95.6,93.7z M94.2,113.6
						c0,0.1,0,0.2,0,0.2h-0.9C93.6,113.8,93.8,113.2,94.2,113.6z M91.5,114.4c-0.3,0.3-0.7,0.3-1.1-0.2
						C90.8,114.3,91.1,114.3,91.5,114.4z M95,115.9c-0.1,0.1-0.4,0.1-0.4-0.3c0,0,0,0,0,0c0,0,0,0,0,0c-0.3,0.1-0.6,0.2-1,0.4
						c0,0.1,0,0.4-0.1,0.7c-0.5-0.1-1-0.3-1.5-0.3c-0.2,0-0.4,0.1-0.7,0.2c-0.1-0.4-0.6-0.5-1-0.6c-0.5-0.1-1-0.3-1.4-0.4
						c0-0.1,0-0.1,0-0.2c0.5,0,1-0.1,1.4,0.1c0.5,0.2,0.9,0.2,1.4,0.2c0.4,0,0.4,0,0.5,0.5c0.2,0,0.3,0.1,0.5,0.1
						c0.1,0,0.2,0,0.3-0.1c-0.1-0.1-0.2-0.2-0.2-0.2c-0.1,0-0.2,0-0.3-0.1c0.5-0.3,0.8-0.4,1.3-0.4c0.1,0,0.2,0,0.3-0.1
						c0.2-0.1,0.4-0.1,0.4,0.2c0,0,0,0,0,0c0,0,0,0,0,0c0.2-0.1,0.3-0.3,0.6-0.5c0,0.1,0.2,0.3,0.2,0.4
						C95.4,115.7,95.2,115.9,95,115.9z M96,114.2c-0.1,0.1-0.3,0.1-0.4,0.2c0.1,0.1,0.1,0.3,0.2,0.4c-0.6,0.1-1.2,0.2-1.8,0.3
						c-0.1,0-0.2-0.1-0.4-0.1c-0.1,0-0.3-0.1-0.4-0.1c-0.5,0.1-0.9,0.2-1.4,0.1c1.1-0.1,2.1-0.9,3.4-0.5c-0.1-0.2-0.2-0.3-0.3-0.5
						c1.3-0.4,2.4-1,3.4-1.9c0.2,0.6,0,0.9-0.6,1.1C97,113.3,96.4,113.6,96,114.2z M99.7,111.6c-0.1,0.7-0.4,1.3-1.1,1.6
						c-0.3,0.2-0.6,0.4-1,0.7c0-0.1-0.1-0.1-0.1-0.2c0.3-0.3,0.7-0.6,1-1c0.1-0.1,0.2-0.3,0.2-0.5c0-0.1-0.2-0.3-0.4-0.4
						c0,0,0.1-0.1,0.2-0.2c0.3-0.2,0.4-0.5,0.5-0.9c0-0.2,0.4-0.4,0.6-0.7c0,0,0.1,0.1,0.1,0.1c-0.1,0.2-0.1,0.3-0.2,0.5
						C100,110.9,99.8,111.3,99.7,111.6z M99.5,90.7c0,0-0.1-0.1-0.1-0.1c0.3-0.4,0.7-0.8,1-1.2c0,0,0.1,0.1,0.1,0.1
						C100.2,89.8,99.9,90.3,99.5,90.7z M101.2,83.6c-0.1,0-0.3,0.1-0.3,0.1c-0.5,0.8-1.1,0.3-1.6,0.1c-0.1,0-0.2-0.1-0.5-0.2
						c0.4-0.2,0.7-0.4,1.1-0.6c0,0,0.1,0,0.2,0c0.4,0.2,0.8,0.3,1.3,0.5c0.1,0,0.2,0,0.4,0c0,0,0-0.1,0.1-0.1
						c-0.1-0.1-0.2-0.1-0.3-0.1c0.5-0.5,0.8-0.5,1.4,0.3c-0.2,0.1-0.4,0.1-0.5,0.1c-0.1,0.1-0.3,0.2-0.4,0.3
						c-0.1,0.1-0.2,0.3-0.3,0.4c-0.1-0.1-0.2-0.2-0.3-0.3C101.3,83.8,101.3,83.7,101.2,83.6z M101.7,110.5c-0.3-0.3-0.3-0.6,0-0.8
						c0.6-0.3,1.2-0.7,1.9-0.6c0.2,0,0.4-0.1,0.6-0.2c-0.3,0.7-0.9,0.7-1.4,0.9C102.4,109.9,101.9,109.9,101.7,110.5z M105.9,125.2
						c-0.5,0.1-1,0-1.3,0.5c-0.1,0.1-0.3,0-0.6,0.1c0.2-0.3,0.4-0.4,0.6-0.6c0.5-0.1,1.1-0.2,1.6-0.3c0,0,0,0.1,0.1,0.1
						C106.1,125,106,125.2,105.9,125.2z M105,99.7h3.8C108.7,100,105.7,100.1,105,99.7z M107.7,105.1c0.5-0.3,1-0.2,1.8,0.4
						C109,105.4,108.4,105.2,107.7,105.1z M109.2,99.8c0-0.1,0-0.1,0-0.2c0.4,0,0.8-0.1,1.3-0.1c0,0.1,0,0.1,0,0.2
						C110.1,99.7,109.7,99.8,109.2,99.8z"/>
				</g>
			</g>
			<g>
				<path class="st10" d="M104.4,104.9c0,0,0-0.1,0-0.1c-0.4,0-0.9,0-1.3,0c0,0,0,0.1,0,0.1C103.6,104.9,104,104.9,104.4,104.9z"/>
			</g>
			<g>
				<path class="st10" d="M101.9,110.9c0,0.1-0.1,0.2-0.1,0.3c0.2,0,0.3,0.1,0.5,0.1c0.1,0,0.1-0.1,0.2-0.2
					C102.3,111.1,102.1,111,101.9,110.9z"/>
			</g>
			<path class="st10" d="M88.3,89.3c-0.1,0.4-0.1,0.7-0.2,1c0,0-0.1,0-0.1,0c-0.1-0.1-0.1-0.2-0.1-0.2c-0.6,0.5-1.2,1.1-1.8,1.6
				c0,0-0.1-0.1-0.1-0.1c-0.2,0.1-0.5,0.1-0.7,0.2c-0.6,0.5-1.3,1.1-1.9,1.6c-0.1,0.1-0.2,0.1-0.4,0.2c0.4-0.9,1.5-1.1,1.6-2.1
				c0.4,0,0.6-0.1,0.8-0.4c0.3-0.4,0.8-0.7,1.2-1c0.2-0.2,0.4-0.3,0.5-0.5c0.3-0.3,0.5-0.6,0.8-0.9C88.1,89,87.6,89.5,88.3,89.3z"/>
			<path class="st10" d="M81.5,99.3c0-0.1-0.1-0.3,0-0.3c0.1-0.1,0.3,0,0.5,0c-0.2,1.4-0.5,2.7-0.7,4c0,0-0.1,0-0.1,0
				c0-0.1,0-0.3-0.1-0.4c0-0.1-0.1-0.2-0.1-0.5c-0.1,0.2-0.2,0.3-0.3,0.5c0-0.4,0-0.8,0-1.1c0,0,0,0,0.1,0c0.1,0.1,0.1,0.3,0.2,0.4
				c0.1-0.6,0.5-1.2,0.1-1.9C81.1,99.9,81.4,99.6,81.5,99.3z"/>
			<path class="st10" d="M82.2,98.7c-0.1-0.2-0.3-0.4-0.5-0.7c0.1,0,0.2,0,0.2,0c0.2-0.4,0.4-0.7,0.5-1.1c0.1,0,0.1,0,0.2,0.1
				C82.5,97.6,82.4,98.1,82.2,98.7z"/>
			<path class="st10" d="M83.3,94.3c0.3-0.1,0.6-0.2,0.9-0.2c0,0.1,0.1,0.1,0.1,0.2c-0.2,0.2-0.5,0.3-0.6,0.4c0,0.2,0,0.3-0.1,0.5
				c-0.1,0-0.1,0-0.2,0C83.5,95,83.4,94.7,83.3,94.3z"/>
			<path class="st10" d="M96.2,85.6c-0.1,0-0.3,0-0.4,0c-0.1,0-0.2,0-0.3,0c0-0.1,0-0.1,0-0.2c0.5-0.2,1-0.4,1.5-0.7
				c0,0.1,0,0.1,0.1,0.1c-0.3,0.2-0.6,0.3-0.8,0.5C96.2,85.6,96.2,85.6,96.2,85.6z"/>
			<path class="st10" d="M80.7,108.9c-0.1-0.7-0.3-1.3-0.4-2C80.6,107.2,80.9,108.3,80.7,108.9z"/>
			<path class="st10" d="M94.6,85.9c0-0.5,0.4-0.8,0.9-0.6C95.2,85.5,94.9,85.7,94.6,85.9z"/>
			<path class="st10" d="M88,90.8c-0.4,0.2-0.8,0.5-1.1,0.7c0,0,0-0.1-0.1-0.1c0.3-0.3,0.7-0.6,1.1-0.8C87.9,90.7,87.9,90.7,88,90.8
				z"/>
			<path class="st10" d="M81.4,107.6c-0.2-0.2-0.8,0-0.5-0.7c0.2,0.2,0.5,0.4,0.7,0.6C81.5,107.5,81.4,107.6,81.4,107.6z"/>
			<path class="st10" d="M93.8,85.5c0,0.1,0,0.2,0.1,0.4c-0.2,0.1-0.4,0.1-0.8,0.2c0.3-0.3,0.4-0.5,0.6-0.6
				C93.7,85.5,93.8,85.5,93.8,85.5z"/>
			<path class="st10" d="M80.6,104.6c0.2-0.3,0.3-0.5,0.5-0.8c0.1,0,0.1,0.1,0.2,0.1c-0.2,0.3-0.3,0.5-0.5,0.8
				C80.7,104.7,80.7,104.7,80.6,104.6z"/>
		</g>
	</g>
</g>
<rect x="117.2" y="76.3" class="st11" width="6.6" height="6.6"/>
<rect x="123.8" y="102.8" class="st11" width="6.6" height="6.6"/>
<rect x="103.9" y="82.9" class="st11" width="6.6" height="6.6"/>
<rect x="134" y="104.3" class="st11" width="6.6" height="6.6"/>
<rect x="110.5" y="89.5" class="st11" width="6.6" height="6.6"/>
<rect x="97.3" y="109.4" class="st11" width="6.6" height="6.6"/>
<rect x="123.8" y="96.2" class="st12" width="6.6" height="6.6"/>
<rect x="103.9" y="96.2" class="st12" width="6.6" height="6.6"/>
<rect x="110.5" y="76.3" class="st12" width="6.6" height="6.6"/>
<rect x="110.5" y="109.4" class="st12" width="6.6" height="6.6"/>
<rect x="123.8" y="82.9" class="st13" width="6.6" height="6.6"/>
<rect x="117.2" y="89.5" class="st13" width="6.6" height="6.6"/>
<rect x="103.9" y="102.8" class="st13" width="6.6" height="6.6"/>
<rect x="130.4" y="89.5" class="st13" width="6.6" height="6.6"/>
<rect x="90.7" y="89.6" class="st13" width="6.6" height="6.6"/>
<rect x="103.9" y="116" class="st13" width="6.6" height="6.6"/>
<rect x="117.2" y="66.1" class="st14" width="6.6" height="6.6"/>
<rect x="117.2" y="96.2" class="st14" width="6.6" height="6.6"/>
<rect x="110.5" y="102.8" class="st14" width="6.6" height="6.6"/>
<rect x="103.9" y="76.3" class="st14" width="6.6" height="6.6"/>
<rect x="103.9" y="109.4" class="st14" width="6.6" height="6.6"/>
<rect x="129.4" y="72.2" class="st15" width="6.6" height="6.6"/>
<rect x="117.2" y="109.4" class="st15" width="6.6" height="6.6"/>
<rect x="103.9" y="69.7" class="st15" width="6.6" height="6.6"/>
<rect x="103.9" y="89.5" class="st15" width="6.6" height="6.6"/>
<rect x="110.5" y="82.9" class="st15" width="6.6" height="6.6"/>
<rect x="103.9" y="102.8" class="st15" width="6.6" height="6.6"/>
<rect x="110.5" y="116" class="st15" width="6.6" height="6.6"/>
<g>
	<path class="st16" d="M183.8,147.4v-8.4h2.6v8.3c0,1.6,0.4,2.5,2.4,2.5c2.1,0,2.5-0.8,2.5-2.4v-8.4h2.5v8.4c0,3.4-1.6,4.6-5,4.6
		C185.4,151.9,183.8,150.7,183.8,147.4"/>
	<path class="st16" d="M196,142.6h2.5v0.9c0.6-0.6,1.5-1.1,2.8-1.1c2,0,2.7,1.1,2.7,3.1v6.2h-2.5V146c0-0.8-0.2-1.4-1.3-1.4
		c-1.2,0-1.8,0.5-1.8,2.1v5.1H196V142.6z"/>
	<path class="st16" d="M205.4,147.5v-0.5c0-2.8,1.4-4.5,4.2-4.5c2.7,0,3.9,1.5,3.9,4.1v1.4h-5.8c0.1,1.4,0.5,2,1.8,2
		c1.3,0,1.5-0.3,1.7-1l2.3,0.4c-0.3,1.2-1.3,2.6-3.9,2.6C206.6,151.9,205.4,150.2,205.4,147.5 M207.9,146.2h3.4
		c0-1.1-0.4-1.7-1.6-1.7C208.4,144.5,208,145.1,207.9,146.2"/>
	<path class="st16" d="M218.3,147.5v-0.5c0-2.8,1.4-4.5,4.2-4.5c2.7,0,3.9,1.5,3.9,4.1v1.4h-5.8c0.1,1.4,0.5,2,1.8,2
		c1.3,0,1.5-0.3,1.7-1l2.3,0.4c-0.3,1.2-1.3,2.6-3.9,2.6C219.4,151.9,218.3,150.2,218.3,147.5 M223.4,139.1h2.9l-3,2.6h-2.6
		L223.4,139.1z M220.7,146.2h3.4c0-1.1-0.4-1.7-1.6-1.7C221.2,144.5,220.8,145.1,220.7,146.2"/>
	<path class="st16" d="M227.5,147.5V147c0-2.9,1.5-4.5,4.3-4.5c2.3,0,3.5,0.9,4,3.4l-2.5,0.4c-0.1-1.2-0.6-1.6-1.6-1.6
		c-1.4,0-1.7,0.8-1.7,2.5v0.2c0,1.6,0.4,2.5,1.7,2.5c1.1,0,1.6-0.5,1.7-1.5l2.5,0.3c-0.5,2-1.8,3.2-4.2,3.2
		C228.7,151.9,227.5,150.1,227.5,147.5"/>
	<path class="st16" d="M236.7,147.5v-0.5c0-2.5,1.1-4.5,4.2-4.5c3.2,0,4.2,1.9,4.2,4.4v0.5c0,2.5-1.3,4.5-4.2,4.5
		C238,151.9,236.7,149.9,236.7,147.5 M242.6,147.3v-0.2c0-1.7-0.4-2.5-1.8-2.5c-1.3,0-1.7,0.8-1.7,2.5v0.2c0,1.7,0.5,2.5,1.7,2.5
		C242.2,149.8,242.6,149,242.6,147.3"/>
	<rect x="246.7" y="138.3" class="st16" width="2.5" height="13.5"/>
	<path class="st16" d="M250.7,147.5v-0.5c0-2.8,1.4-4.5,4.2-4.5c2.7,0,3.9,1.5,3.9,4.1v1.4h-5.8c0.1,1.4,0.5,2,1.8,2
		c1.3,0,1.5-0.3,1.7-1l2.3,0.4c-0.3,1.2-1.3,2.6-3.9,2.6C251.9,151.9,250.7,150.2,250.7,147.5 M253.1,146.2h3.4
		c0-1.1-0.4-1.7-1.6-1.7C253.6,144.5,253.2,145.1,253.1,146.2"/>
	<path class="st16" d="M200.6,163.7v-0.7c0-3.5,1.2-6,5.4-6c3.2,0,4.6,1.3,5,4.2l-2.7,0.4c-0.1-1.5-0.7-2.4-2.3-2.4
		c-2.2,0-2.8,1.4-2.8,3.7v0.7c0,2.5,0.7,3.7,2.8,3.7c1.7,0,2.2-0.7,2.4-2.6l2.7,0.3c-0.5,2.8-1.8,4.5-5.3,4.5
		C201.8,169.6,200.6,167.1,200.6,163.7"/>
	<path class="st16" d="M212,163.7v-0.7c0-3.5,1.2-6,5.4-6c3.2,0,4.6,1.3,5,4.2l-2.7,0.4c-0.1-1.5-0.7-2.4-2.3-2.4
		c-2.2,0-2.8,1.4-2.8,3.7v0.7c0,2.5,0.7,3.7,2.8,3.7c1.7,0,2.2-0.7,2.4-2.6l2.7,0.3c-0.5,2.8-1.8,4.5-5.3,4.5
		C213.2,169.6,212,167.1,212,163.7"/>
	<rect x="224" y="157.1" class="st16" width="2.5" height="12.4"/>
	<path class="st16" d="M232.5,157.1h5.3c2.3,0,4.3,0.5,4.3,3.1c0,1.4-0.6,2.3-1.6,2.6c1.2,0.4,1.9,1.4,1.9,3c0,2.5-1.4,3.7-4.3,3.7
		h-5.6V157.1z M237.8,161.9c1.1,0,1.8-0.4,1.8-1.4c0-1-0.6-1.4-1.8-1.4h-2.9v2.9H237.8z M238.1,167.6c1.3,0,1.8-0.8,1.8-1.7
		c0-1.1-0.5-1.8-1.8-1.8h-3.2v3.6H238.1z"/>
	<path class="st16" d="M243.7,163.7v-0.7c0-3.3,1.1-6,5.4-6c4.3,0,5.4,2.7,5.4,5.9v0.8c0,3-1.3,6-5.4,6
		C245,169.6,243.7,166.9,243.7,163.7 M252,163.7v-0.8c0-2.6-0.8-3.7-2.9-3.7c-2,0-2.8,1.1-2.8,3.7v0.8c0,2.6,1,3.8,2.8,3.8
		C251,167.4,252,166.3,252,163.7"/>
	<path class="st16" d="M261.2,164.6h-2.4v4.9h-2.5v-12.4h5.4c2.2,0,4.3,0.6,4.3,3.7c0,1.9-1,3-2.3,3.5l2.5,5.2h-2.7L261.2,164.6z
		 M261.4,162.6c1.4,0,2.1-0.5,2.1-1.7c0-1.2-0.7-1.7-2.1-1.7h-2.6v3.4H261.4z"/>
	<path class="st16" d="M267.9,157.1h4.3c4.3,0,5.4,2.4,5.4,5.8v0.8c0,3.4-1.4,5.8-5.4,5.8h-4.3V157.1z M272.3,167.4
		c2.3,0,2.8-1.5,2.8-3.8v-0.8c0-2.6-0.7-3.7-2.9-3.7h-1.8v8.2H272.3z"/>
	<polygon class="st16" points="279.4,157.1 287.8,157.1 287.8,159.3 281.9,159.3 281.9,161.7 287.2,161.7 287.2,163.9 281.9,163.9 
		281.9,167.3 287.8,167.3 287.8,169.5 279.4,169.5 	"/>
	<path class="st16" d="M293.1,157h2.5l4.2,12.5h-2.5l-0.9-2.5h-4.3l-0.8,2.5h-2.4L293.1,157z M292.8,165h3l-1.5-4.4L292.8,165z"/>
	<path class="st16" d="M300.9,165.2v-8.1h2.5v8c0,1.6,0.4,2.4,2.3,2.4c2,0,2.4-0.8,2.4-2.3v-8.1h2.4v8.1c0,3.3-1.6,4.4-4.8,4.4
		C302.4,169.6,300.9,168.5,300.9,165.2"/>
	<polygon class="st16" points="315.8,162.8 312.3,157.1 315,157.1 317.2,160.8 319.3,157.1 321.9,157.1 318.5,162.8 322.6,169.5 
		319.9,169.5 317,164.9 314.4,169.5 311.7,169.5 	"/>
	<path class="st16" d="M332.1,162.5h5.2v7h-2l-0.3-1.2c-0.6,0.8-1.5,1.3-3.3,1.3c-3.8,0-4.9-2.4-4.9-5.9v-0.7c0-3.7,1.4-6,5.4-6
		c2.7,0,4.5,1.2,4.9,3.7l-2.7,0.4c-0.1-1.4-1-1.9-2.2-1.9c-2.3,0-2.8,1.5-2.8,3.7v0.7c0,2.4,0.5,3.8,2.8,3.8c1.6,0,2.6-0.7,2.7-2.6
		v-0.3h-2.9V162.5z"/>
	<rect x="339.6" y="157.1" class="st16" width="2.5" height="12.4"/>
	<path class="st16" d="M349.5,164.6h-2.4v4.9h-2.5v-12.4h5.4c2.2,0,4.3,0.6,4.3,3.7c0,1.9-1,3-2.3,3.5l2.5,5.2h-2.7L349.5,164.6z
		 M349.7,162.6c1.4,0,2.1-0.5,2.1-1.7c0-1.2-0.7-1.7-2.1-1.7h-2.6v3.4H349.7z"/>
	<path class="st16" d="M355.5,163.7v-0.7c0-3.3,1.1-6,5.4-6c4.3,0,5.4,2.7,5.4,5.9v0.8c0,3-1.3,6-5.4,6
		C356.8,169.6,355.5,166.9,355.5,163.7 M363.7,163.7v-0.8c0-2.6-0.8-3.7-2.9-3.7c-2,0-2.8,1.1-2.8,3.7v0.8c0,2.6,1,3.8,2.8,3.8
		C362.7,167.4,363.7,166.3,363.7,163.7"/>
	<polygon class="st16" points="368,157.1 371,157.1 375.3,164.8 375.3,157.1 377.7,157.1 377.7,169.5 375.3,169.5 370.4,160.8 
		370.4,169.5 368,169.5 	"/>
	<path class="st16" d="M380.1,157.1h4.3c4.3,0,5.4,2.4,5.4,5.8v0.8c0,3.4-1.4,5.8-5.4,5.8h-4.3V157.1z M384.4,167.4
		c2.3,0,2.8-1.5,2.8-3.8v-0.8c0-2.6-0.7-3.7-2.9-3.7h-1.8v8.2H384.4z"/>
	<polygon class="st16" points="391.6,157.1 400,157.1 400,159.3 394.1,159.3 394.1,161.7 399.4,161.7 399.4,163.9 394.1,163.9 
		394.1,167.3 400,167.3 400,169.5 391.6,169.5 	"/>
	<path class="st16" d="M181.9,163.3c0,4.4,3.5,7.9,7.9,7.9c2.1,0,3.7-0.8,4.9-1.7l-1.7-1.9c-0.9,0.7-2,1-3.2,1c-3,0-5.4-2.4-5.4-5.4
		c0-3,2.4-5.4,5.4-5.4c0.8,0,1.5,0.2,2.2,0.5l1-2.3c-1-0.4-2-0.7-3.2-0.7C185.4,155.4,181.9,159,181.9,163.3"/>
	<path class="st16" d="M185.6,163.3c0,2.3,1.9,4.2,4.2,4.2c0.9,0,1.8-0.3,2.4-0.7c0,0-1.6-1.7-1.7-1.9c-0.1,0.1-0.4,0.1-0.7,0.1
		c-0.9,0-1.7-0.8-1.7-1.7c0-0.9,0.8-1.7,1.7-1.7c0.2,0,0.5,0.1,0.7,0.1l1-2.3c-0.5-0.2-1.1-0.4-1.7-0.4
		C187.5,159.1,185.6,161,185.6,163.3"/>
	<path class="st16" d="M195.2,160.6l-2.3,1.1c0.2,0.4,0.4,1,0.4,1.6c0,0.8-0.3,1.6-0.8,2.2l1.7,1.9c0.9-1,1.6-2.5,1.6-4.1
		C195.8,162.4,195.6,161.4,195.2,160.6"/>
	<path class="st16" d="M194.1,156.4l-1.9,4.3l0,0l4.3-2C195.9,157.8,195,156.9,194.1,156.4"/>
</g>
<g>
	<path class="st17" d="M186.8,56.6c0,7.9,5.8,13.6,13.3,13.6c4.5,0,8.4-2.1,10.9-5.3h0.5l4,3.3v0.5c-3.5,4.4-8.9,7.3-15.5,7.3
		c-11,0-19.7-8.2-19.7-19.3c0-11.1,8.7-19.3,19.7-19.3c6.4,0,12,2.9,15.5,7.3v0.5l-4,3.3H211c-2.5-3.3-6.4-5.3-10.9-5.3
		C192.7,43.1,186.8,48.7,186.8,56.6z"/>
	<path class="st17" d="M248.8,74.6l-0.2,0.4c-0.8,0.6-2,1-3.4,1c-2.6,0-4.5-1.4-5.2-3.7c-2.5,2.3-6,3.7-9.8,3.7
		c-5.9,0-11.3-3.3-11.3-9.4c0-6.4,5.7-9.3,12.8-9.3c3.1,0,5.5,0.6,7.6,1.3v-1.6c0-4.1-3.7-6.1-7.7-6.1c-3.3,0-5.8,1.4-7.8,3.3h-0.5
		l-3.1-3v-0.5c3.1-3,7-4.8,12-4.8c6.2,0,13.2,2.7,13.2,11V68c0,1.5,0.3,2.5,1.3,2.5c0.4,0,0.7-0.2,0.9-0.3l0.4,0.2L248.8,74.6z
		 M239.1,62.8c-1.5-0.6-4-1.3-6.8-1.3c-4.5,0-7.3,1.9-7.3,5c0,3.3,3.1,4.9,6.4,4.9c4,0,7.7-2.5,7.7-6.5V62.8z"/>
	<path class="st17" d="M300.7,58v17.2h-6.2V58.5c0-4.4-2.5-7.2-6.5-7.2c-4.2,0-7.1,2.9-7.1,7.2v16.7h-6.3V58.5
		c0-4.4-2.4-7.2-6.5-7.2c-4.1,0-7,2.9-7,7.2v16.7h-6.3V53.9c0-1.5-0.2-2.5-1.3-2.5c-0.4,0-0.7,0.2-0.9,0.3l-0.4-0.2l-0.9-4.2
		l0.2-0.4c0.8-0.6,2-1,3.5-1c2.6,0,4.5,1.3,5.2,3.6c2.2-2.2,5.4-3.6,9.2-3.6c4.4,0,7.7,1.8,9.6,4.9c2.2-2.9,5.8-4.9,10.3-4.9
		C296.3,45.9,300.7,50.9,300.7,58z"/>
	<path class="st17" d="M339,60.9c0,8.4-5.8,15-14.5,15c-3.7,0-6.8-1.4-9.2-3.5v11.4H309V53.9c0-1.5-0.2-2.5-1.3-2.5
		c-0.4,0-0.7,0.2-0.9,0.3l-0.4-0.2l-0.9-4.2l0.2-0.4c0.8-0.6,1.9-1,3.6-1c2.7,0,4.6,1.5,5.3,4.2c2.5-2.5,5.9-4.2,10-4.2
		C333.1,45.9,339,52.6,339,60.9z M332.6,60.9c0-5.3-3.6-9.6-8.9-9.6c-5,0-9,3.3-9,9.6c0,6.2,4,9.6,9,9.6
		C329,70.5,332.6,66.3,332.6,60.9z"/>
	<path class="st17" d="M374,74.6l-0.2,0.4c-0.8,0.6-1.9,1-3.6,1c-2.5,0-4.4-1.3-5.1-3.6c-2.2,2.2-5.3,3.6-8.9,3.6
		c-7.3,0-11.8-4.6-11.8-11.7V46.6h6.2v17.1c0,4.4,2.6,6.8,6.6,6.8c4.1,0,7-2.9,7-7.2V46.6h6.2V68c0,1.5,0.3,2.5,1.3,2.5
		c0.4,0,0.7-0.2,0.9-0.3l0.4,0.2L374,74.6z"/>
	<path class="st17" d="M388.5,45.9c4.5,0,8.4,1.8,10.5,4.5v0.5l-3.2,2.7h-0.5c-1.6-1.8-4-3-6.7-3c-2.8,0-4.3,1.3-4.3,3.1
		c0,1.9,1.8,2.8,4.9,4.1c4.4,1.7,10.7,3.5,10.7,9.6c0,5.4-4.9,8.5-11.1,8.5c-5.1,0-9.4-2.1-12-5.3v-0.5l3.2-2.8h0.5
		c1.6,2.2,4.5,3.9,7.8,3.9c3.1,0,5.2-1.5,5.2-3.7c0-2.6-2.9-3.6-6.4-4.9c-4.4-1.6-9.1-3.4-9.1-8.5C378.1,49.3,382.2,45.9,388.5,45.9
		z"/>
	<path class="st17" d="M213.6,119.7l-0.2,0.4c-0.8,0.6-2,1-3.4,1c-2.7,0-4.6-1.5-5.3-4.1c-2.5,2.5-5.9,4.1-10.1,4.1
		c-8.5,0-14.4-6.6-14.4-15c0-8.4,6-15,14.4-15c3.8,0,7,1.4,9.4,3.5V82.2l5.8-0.9l0.4,0.3v31.5c0,1.5,0.3,2.5,1.3,2.5
		c0.4,0,0.7-0.2,0.9-0.3l0.4,0.2L213.6,119.7z M204.4,106.1c0-6.3-4.1-9.6-8.9-9.6c-5.6,0-9,4.3-9,9.6c0,5.3,3.5,9.6,9,9.6
		C200.4,115.6,204.4,112.3,204.4,106.1z"/>
	<path class="st17" d="M247.9,119.7l-0.2,0.4c-0.8,0.6-1.9,1-3.6,1c-2.5,0-4.4-1.3-5.1-3.6c-2.2,2.2-5.3,3.6-8.9,3.6
		c-7.3,0-11.8-4.6-11.8-11.7V91.7h6.2v17.1c0,4.4,2.6,6.8,6.6,6.8c4.1,0,7-2.9,7-7.2V91.7h6.2v21.4c0,1.5,0.3,2.5,1.3,2.5
		c0.4,0,0.7-0.2,0.9-0.3l0.4,0.2L247.9,119.7z"/>
	<path class="st17" d="M290.6,120.4h-23.1V83.2h6.4V115h16.8V120.4z"/>
	<path class="st17" d="M323.2,119.7l-0.2,0.4c-0.8,0.6-2,1-3.4,1c-2.6,0-4.5-1.4-5.2-3.7c-2.5,2.3-6,3.7-9.8,3.7
		c-5.9,0-11.3-3.3-11.3-9.4c0-6.4,5.7-9.3,12.8-9.3c3.1,0,5.5,0.6,7.6,1.3v-1.6c0-4.1-3.7-6.1-7.7-6.1c-3.3,0-5.8,1.4-7.8,3.3h-0.5
		l-3.1-3v-0.5c3.1-3,7-4.8,12-4.8c6.2,0,13.2,2.7,13.2,11v11.1c0,1.5,0.3,2.5,1.3,2.5c0.4,0,0.7-0.2,0.9-0.3l0.4,0.2L323.2,119.7z
		 M313.6,107.9c-1.5-0.6-4-1.3-6.8-1.3c-4.5,0-7.3,1.9-7.3,5c0,3.3,3.1,4.9,6.4,4.9c4,0,7.7-2.5,7.7-6.5V107.9z"/>
	<path class="st17" d="M326.4,106.1c0-8.5,6.5-15,15.5-15c5,0,9.2,2,11.7,5v0.5l-3.6,3.1h-0.5c-2-2-4.5-3.2-7.5-3.2
		c-5.4,0-9.3,4.1-9.3,9.6c0,5.4,3.6,9.5,9.4,9.5c2.7,0,5.3-0.9,7.3-3.2h0.5l3.6,3.1v0.5c-2.6,3-6.7,5-11.7,5
		C332.9,121.1,326.4,114.6,326.4,106.1z"/>
</g>
</svg>
